<?xml version="1.0" encoding="utf-8"?>
<!-- Generator: Adobe Illustrator 27.5.0, SVG Export Plug-In . SVG Version: 6.00 Build 0)  -->
<svg version="1.1" xmlns="http://www.w3.org/2000/svg" xmlns:xlink="http://www.w3.org/1999/xlink" x="0px" y="0px"
	 viewBox="0 0 500 500" style="enable-background:new 0 0 500 500;" xml:space="preserve">
<g id="Background_Simple">
	<g>
		<path style="fill:#92E3A9;" d="M330.181,61.297c0,0-72.735-25.863-144.133,15.313C114.65,117.786,78.624,199.526,47.688,265.002
			C16.751,330.479,34.558,397.08,89.061,427.448c54.503,30.368,91.563-14.398,168.022-16.578
			c76.459-2.18,97.022,8.751,160.468-34.441c63.446-43.192,74.914-145.199,24.866-220.677
			C392.368,80.274,330.181,61.297,330.181,61.297z"/>
		<path style="opacity:0.7;fill:#FFFFFF;" d="M330.181,61.297c0,0-72.735-25.863-144.133,15.313
			C114.65,117.786,78.624,199.526,47.688,265.002C16.751,330.479,34.558,397.08,89.061,427.448
			c54.503,30.368,91.563-14.398,168.022-16.578c76.459-2.18,97.022,8.751,160.468-34.441
			c63.446-43.192,74.914-145.199,24.866-220.677C392.368,80.274,330.181,61.297,330.181,61.297z"/>
	</g>
</g>
<g id="Window">
	<g>
		<g>
			<polygon style="fill:none;stroke:#263238;stroke-miterlimit:10;" points="118.683,82.894 39.83,82.894 38.788,93.735 
				118.683,93.735 			"/>
			<polygon style="fill:none;stroke:#263238;stroke-miterlimit:10;" points="118.683,93.735 39.83,93.735 38.788,104.576 
				118.683,104.576 			"/>
			<polygon style="fill:none;stroke:#263238;stroke-miterlimit:10;" points="118.683,104.576 39.83,104.576 38.788,115.417 
				118.683,115.417 			"/>
			<polygon style="fill:none;stroke:#263238;stroke-miterlimit:10;" points="118.683,115.417 39.83,115.417 38.788,126.258 
				118.683,126.258 			"/>
			<polygon style="fill:none;stroke:#263238;stroke-miterlimit:10;" points="118.683,126.258 39.83,126.258 38.788,137.099 
				118.683,137.099 			"/>
			<polygon style="fill:none;stroke:#263238;stroke-miterlimit:10;" points="118.683,137.099 39.83,137.099 38.788,147.94 
				118.683,147.94 			"/>
			<polygon style="fill:none;stroke:#263238;stroke-miterlimit:10;" points="118.683,147.94 39.83,147.94 38.788,158.78 
				118.683,158.78 			"/>
			<polygon style="fill:none;stroke:#263238;stroke-miterlimit:10;" points="118.683,158.78 39.83,158.78 38.788,169.621 
				118.683,169.621 			"/>
			<polygon style="fill:none;stroke:#263238;stroke-miterlimit:10;" points="118.683,169.621 39.83,169.621 38.788,180.462 
				118.683,180.462 			"/>
			<polygon style="fill:none;stroke:#263238;stroke-miterlimit:10;" points="118.683,180.462 39.83,180.462 38.788,191.303 
				118.683,191.303 			"/>
			<polygon style="fill:none;stroke:#263238;stroke-miterlimit:10;" points="118.683,191.303 39.83,191.303 38.788,202.144 
				118.683,202.144 			"/>
			<polygon style="fill:none;stroke:#263238;stroke-miterlimit:10;" points="118.683,202.144 39.83,202.144 38.788,212.985 
				118.683,212.985 			"/>
			<polygon style="fill:none;stroke:#263238;stroke-miterlimit:10;" points="118.683,212.985 39.83,212.985 38.788,223.826 
				118.683,223.826 			"/>
			<polygon style="fill:none;stroke:#263238;stroke-miterlimit:10;" points="118.683,223.826 39.83,223.826 38.788,234.667 
				118.683,234.667 			"/>
			<polygon style="fill:none;stroke:#263238;stroke-miterlimit:10;" points="118.683,234.667 39.83,234.667 38.788,245.508 
				118.683,245.508 			"/>
		</g>
		<g>
			<polygon style="fill:none;stroke:#263238;stroke-miterlimit:10;" points="199.742,82.894 120.889,82.894 119.848,93.735 
				199.742,93.735 			"/>
			<polygon style="fill:none;stroke:#263238;stroke-miterlimit:10;" points="199.742,93.735 120.889,93.735 119.848,104.576 
				199.742,104.576 			"/>
			<polygon style="fill:none;stroke:#263238;stroke-miterlimit:10;" points="199.742,104.576 120.889,104.576 119.848,115.417 
				199.742,115.417 			"/>
			<polygon style="fill:none;stroke:#263238;stroke-miterlimit:10;" points="199.742,115.417 120.889,115.417 119.848,126.258 
				199.742,126.258 			"/>
			<polygon style="fill:none;stroke:#263238;stroke-miterlimit:10;" points="199.742,126.258 120.889,126.258 119.848,137.099 
				199.742,137.099 			"/>
			<polygon style="fill:none;stroke:#263238;stroke-miterlimit:10;" points="199.742,137.099 120.889,137.099 119.848,147.94 
				199.742,147.94 			"/>
			<polygon style="fill:none;stroke:#263238;stroke-miterlimit:10;" points="199.742,147.94 120.889,147.94 119.848,158.78 
				199.742,158.78 			"/>
			<polygon style="fill:none;stroke:#263238;stroke-miterlimit:10;" points="199.742,158.78 120.889,158.78 119.848,169.621 
				199.742,169.621 			"/>
			<polygon style="fill:none;stroke:#263238;stroke-miterlimit:10;" points="199.742,169.621 120.889,169.621 119.848,180.462 
				199.742,180.462 			"/>
			<polygon style="fill:none;stroke:#263238;stroke-miterlimit:10;" points="199.742,180.462 120.889,180.462 119.848,191.303 
				199.742,191.303 			"/>
			<polygon style="fill:none;stroke:#263238;stroke-miterlimit:10;" points="199.742,191.303 120.889,191.303 119.848,202.144 
				199.742,202.144 			"/>
			<polygon style="fill:none;stroke:#263238;stroke-miterlimit:10;" points="199.742,202.144 120.889,202.144 119.848,212.985 
				199.742,212.985 			"/>
			<polygon style="fill:none;stroke:#263238;stroke-miterlimit:10;" points="199.742,212.985 120.889,212.985 119.848,223.826 
				199.742,223.826 			"/>
			<polygon style="fill:none;stroke:#263238;stroke-miterlimit:10;" points="199.742,223.826 120.889,223.826 119.848,234.667 
				199.742,234.667 			"/>
			<polygon style="fill:none;stroke:#263238;stroke-miterlimit:10;" points="199.742,234.667 120.889,234.667 119.848,245.508 
				199.742,245.508 			"/>
		</g>
		<rect x="36.945" y="74.501" style="fill:#263238;stroke:#263238;stroke-miterlimit:10;" width="166.747" height="8.178"/>
		<line style="fill:none;stroke:#263238;stroke-miterlimit:10;" x1="203.692" y1="82.679" x2="203.692" y2="226.709"/>
		<line style="fill:none;stroke:#263238;stroke-miterlimit:10;" x1="201.874" y1="82.91" x2="201.874" y2="181.728"/>
		<rect x="202.63" y="226.391" style="fill:#263238;stroke:#263238;stroke-miterlimit:10;" width="2.242" height="3.668"/>
		<rect x="200.611" y="180.941" style="fill:#263238;stroke:#263238;stroke-miterlimit:10;" width="2.242" height="3.668"/>
	</g>
</g>
<g id="Picture">
	<g>
		<rect x="320.205" y="73.379" style="fill:none;stroke:#263238;stroke-miterlimit:10;" width="122.139" height="157.049"/>
		<rect x="324.634" y="79.074" style="fill:none;stroke:#263238;stroke-miterlimit:10;" width="113.281" height="145.659"/>
		<path style="fill:none;stroke:#263238;stroke-miterlimit:10;" d="M332.241,79.672c0,0-4.118,26.996,21.505,44.383
			c25.624,17.387,69.092,9.151,83.734,33.86"/>
		<path style="fill:none;stroke:#263238;stroke-miterlimit:10;" d="M324.92,171.184c0,0,39.349-32.86,53.992-9.151
			c9.609,15.557-34.775,43.011-34.775,62.686"/>
		<path style="fill:none;stroke:#263238;stroke-miterlimit:10;" d="M383.945,79.672c0,0,16.472,25.623,53.992,18.76"/>
		<circle style="fill:none;stroke:#263238;stroke-miterlimit:10;" cx="373.879" cy="106.668" r="15.099"/>
		<circle style="fill:none;stroke:#263238;stroke-miterlimit:10;" cx="419.406" cy="127.03" r="7.092"/>
		<path style="fill:none;stroke:#263238;stroke-miterlimit:10;" d="M399.41,224.82c-5.849-5.354-9.517-13.052-9.517-21.606
			c0-16.173,13.111-29.284,29.284-29.284c6.946,0,13.328,2.419,18.348,6.46"/>
	</g>
</g>
<g id="Couch">
	<g>
		<path style="fill:#525252;stroke:#263238;stroke-linecap:round;stroke-linejoin:round;stroke-miterlimit:10;" d="M199.154,364.55
			c0.5-47-15.5-81.5-15.5-81.5h-8H32.426l0.724,1.19l6.013,80.575h136.492v45.317h65V364.55H199.154z"/>
		<path style="fill:#FFFFFF;stroke:#263238;stroke-linecap:round;stroke-linejoin:round;stroke-miterlimit:10;" d="M90.927,444.867
			h-5.217c-0.712,0-1.299-0.557-1.337-1.268l-2.519-37.457h12.928l-2.519,37.457C92.227,444.31,91.639,444.867,90.927,444.867z"/>
		<path style="fill:#FFFFFF;stroke:#263238;stroke-linecap:round;stroke-linejoin:round;stroke-miterlimit:10;" d="M263.502,444.867
			h-5.217c-0.712,0-1.299-0.557-1.337-1.268l-2.519-37.457h12.928l-2.519,37.457C264.801,444.31,264.214,444.867,263.502,444.867z"
			/>
		<path style="fill:#FFFFFF;stroke:#263238;stroke-linecap:round;stroke-linejoin:round;stroke-miterlimit:10;" d="M35.607,444.867
			H30.39c-0.712,0-1.299-0.557-1.337-1.268l-2.519-37.457h12.928l-2.519,37.457C36.907,444.31,36.319,444.867,35.607,444.867z"/>
		<path style="fill:#FFFFFF;stroke:#263238;stroke-linecap:round;stroke-linejoin:round;stroke-miterlimit:10;" d="M208.182,444.867
			h-5.217c-0.712,0-1.299-0.557-1.337-1.268l-2.519-37.457h12.928l-2.519,37.457C209.481,444.31,208.894,444.867,208.182,444.867z"
			/>
		<path style="fill:#263238;stroke:#263238;stroke-linecap:round;stroke-linejoin:round;stroke-miterlimit:10;" d="M89.426,410.132
			V364.55h-41.5c0.5-47-15.5-81.5-15.5-81.5h-5.265c-1.511,0-2.735,1.225-2.735,2.735v124.346H89.426z"/>
		<path style="fill:#525252;stroke:#263238;stroke-linecap:round;stroke-linejoin:round;stroke-miterlimit:10;" d="M271.266,410.05
			H89.426v-45.5h175.42c3.546,0,6.42,2.874,6.42,6.42V410.05z"/>
	</g>
</g>
<g id="Clock">
	<g>
		<circle style="fill:none;stroke:#263238;stroke-linecap:round;stroke-miterlimit:10;" cx="267" cy="110.333" r="38.5"/>
		<circle style="fill:none;stroke:#263238;stroke-linecap:round;stroke-miterlimit:10;" cx="267" cy="110.333" r="34.764"/>
		<polyline style="fill:none;stroke:#263238;stroke-linecap:round;stroke-miterlimit:10;" points="280.786,114.615 267,110.333 
			283.327,86.661 		"/>
		<circle style="fill:#263238;stroke:#263238;stroke-miterlimit:10;" cx="267" cy="110.333" r="1.952"/>
		<circle style="fill:none;stroke:#263238;stroke-linecap:round;stroke-miterlimit:10;" cx="253.551" cy="92.632" r="7.045"/>
		<path style="fill:none;stroke:#263238;stroke-linecap:round;stroke-miterlimit:10;" d="M256.57,104.877
			c0,0.834-0.676,1.51-1.51,1.51c-0.834,0-1.51-0.676-1.51-1.51c0-0.834,0.676-1.51,1.51-1.51
			C255.895,103.367,256.57,104.043,256.57,104.877z"/>
	</g>
</g>
<g id="Furniture">
	<g>
		
			<rect x="305.09" y="265.73" transform="matrix(-1 -1.224647e-16 1.224647e-16 -1 779.4157 537.8389)" style="fill:none;stroke:#263238;stroke-linecap:round;stroke-linejoin:round;stroke-miterlimit:10;" width="169.235" height="6.379"/>
		
			<rect x="312.94" y="272.292" transform="matrix(-1 -1.224647e-16 1.224647e-16 -1 779.4156 716.9007)" style="fill:none;stroke:#263238;stroke-linecap:round;stroke-linejoin:round;stroke-miterlimit:10;" width="153.536" height="172.317"/>
		<g>
			
				<rect x="318.463" y="280.309" transform="matrix(-1 -1.224647e-16 1.224647e-16 -1 779.594 598.0061)" style="fill:none;stroke:#263238;stroke-linecap:round;stroke-linejoin:round;stroke-miterlimit:10;" width="142.669" height="37.389"/>
			
				<rect x="382.91" y="295.559" transform="matrix(-1 -1.224647e-16 1.224647e-16 -1 780.086 598.0061)" style="fill:#263238;stroke:#263238;stroke-linecap:round;stroke-linejoin:round;stroke-miterlimit:10;" width="14.267" height="6.887"/>
		</g>
		<g>
			
				<rect x="318.463" y="327.537" transform="matrix(-1 -1.224647e-16 1.224647e-16 -1 779.594 692.4627)" style="fill:none;stroke:#263238;stroke-linecap:round;stroke-linejoin:round;stroke-miterlimit:10;" width="142.669" height="37.389"/>
			
				<rect x="382.91" y="342.788" transform="matrix(-1 -1.224647e-16 1.224647e-16 -1 780.086 692.4627)" style="fill:#263238;stroke:#263238;stroke-linecap:round;stroke-linejoin:round;stroke-miterlimit:10;" width="14.267" height="6.887"/>
		</g>
		<g>
			
				<rect x="318.463" y="374.984" transform="matrix(-1 -1.224647e-16 1.224647e-16 -1 779.594 787.3563)" style="fill:none;stroke:#263238;stroke-linecap:round;stroke-linejoin:round;stroke-miterlimit:10;" width="142.669" height="37.389"/>
			
				<rect x="382.91" y="390.234" transform="matrix(-1 -1.224647e-16 1.224647e-16 -1 780.086 787.3563)" style="fill:#263238;stroke:#263238;stroke-linecap:round;stroke-linejoin:round;stroke-miterlimit:10;" width="14.267" height="6.887"/>
		</g>
	</g>
	<g>
		<g>
			<g>
				<path style="fill:none;stroke:#263238;stroke-linecap:round;stroke-linejoin:round;stroke-miterlimit:10;" d="M433.651,187.559
					c0,0,4.326,23.127,4.538,52.994"/>
				<path style="fill:none;stroke:#263238;stroke-linecap:round;stroke-linejoin:round;stroke-miterlimit:10;" d="M451.745,188.233
					c0,0-11.226,19.488-12.286,50.413"/>
				<path style="fill:none;stroke:#263238;stroke-linecap:round;stroke-linejoin:round;stroke-miterlimit:10;" d="M460.006,204.543
					c0,0-13.98,16.946-21.818,39.822"/>
				<path style="fill:none;stroke:#263238;stroke-linecap:round;stroke-linejoin:round;stroke-miterlimit:10;" d="M452.804,220.642
					c0,0-11.65,11.438-14.404,26.478"/>
				<path style="fill:none;stroke:#263238;stroke-linecap:round;stroke-linejoin:round;stroke-miterlimit:10;" d="M424.696,219.638
					c0,0,11.666,4.816,13.915,29.176"/>
				<path style="fill:none;stroke:#263238;stroke-linecap:round;stroke-linejoin:round;stroke-miterlimit:10;" d="M438.612,241.4
					c-2.754-23.936-15.419-34.995-15.419-34.995"/>
				
					<line style="fill:none;stroke:#263238;stroke-linecap:round;stroke-linejoin:round;stroke-miterlimit:10;" x1="432.09" y1="204.499" x2="438.188" y2="244.366"/>
				<path style="fill:none;stroke:#263238;stroke-linecap:round;stroke-linejoin:round;stroke-miterlimit:10;" d="M420.183,194.587
					c0,0,18.139,28.066,19.488,50.625"/>
			</g>
			<g>
				<g>
					<path style="fill:#FFFFFF;" d="M429.436,206.405c0,0.228-0.44,0.43-0.464,0.652c-0.025,0.226,0.358,0.52,0.309,0.738
						c-0.05,0.222-0.524,0.32-0.598,0.532c-0.075,0.214,0.233,0.586,0.136,0.788c-0.098,0.204-0.582,0.194-0.702,0.384
						c-0.12,0.191,0.097,0.623-0.043,0.799c-0.141,0.176-0.61,0.06-0.769,0.219c-0.159,0.159-0.043,0.628-0.219,0.769
						c-0.176,0.141-0.608-0.077-0.799,0.043c-0.19,0.12-0.18,0.603-0.384,0.701c-0.202,0.098-0.574-0.211-0.788-0.136
						c-0.211,0.074-0.31,0.547-0.531,0.598c-0.218,0.049-0.512-0.334-0.738-0.309c-0.222,0.025-0.423,0.464-0.652,0.464
						c-0.228,0-0.43-0.439-0.652-0.464c-0.226-0.025-0.52,0.359-0.738,0.309c-0.221-0.05-0.32-0.524-0.532-0.598
						c-0.214-0.075-0.586,0.233-0.788,0.136c-0.204-0.098-0.194-0.582-0.385-0.702c-0.191-0.12-0.623,0.097-0.799-0.043
						c-0.176-0.141-0.06-0.61-0.219-0.769c-0.159-0.159-0.628-0.043-0.769-0.219c-0.14-0.176,0.077-0.607-0.043-0.799
						c-0.12-0.19-0.603-0.18-0.701-0.384c-0.098-0.202,0.211-0.574,0.136-0.788c-0.074-0.211-0.547-0.31-0.598-0.531
						c-0.049-0.218,0.334-0.512,0.309-0.738c-0.025-0.222-0.464-0.423-0.464-0.651s0.439-0.43,0.464-0.652
						c0.025-0.226-0.358-0.52-0.309-0.738c0.05-0.222,0.524-0.32,0.598-0.532c0.075-0.214-0.233-0.586-0.136-0.788
						c0.098-0.204,0.582-0.194,0.702-0.384c0.12-0.191-0.097-0.623,0.043-0.799c0.141-0.176,0.61-0.06,0.769-0.219
						c0.16-0.159,0.043-0.628,0.219-0.769c0.176-0.14,0.607,0.077,0.799-0.043c0.19-0.12,0.18-0.603,0.384-0.701
						c0.202-0.097,0.574,0.211,0.788,0.136c0.211-0.074,0.31-0.547,0.532-0.598c0.218-0.05,0.512,0.334,0.738,0.309
						c0.222-0.025,0.423-0.464,0.652-0.464s0.43,0.439,0.652,0.464c0.226,0.025,0.52-0.358,0.738-0.309
						c0.221,0.05,0.32,0.524,0.532,0.598c0.214,0.075,0.586-0.233,0.788-0.136c0.204,0.098,0.194,0.582,0.384,0.702
						c0.191,0.12,0.623-0.097,0.799,0.043c0.176,0.141,0.06,0.61,0.219,0.769c0.159,0.159,0.629,0.043,0.769,0.219
						c0.14,0.176-0.077,0.607,0.043,0.799c0.12,0.19,0.603,0.18,0.701,0.384c0.098,0.202-0.211,0.574-0.136,0.788
						c0.074,0.211,0.547,0.31,0.598,0.531c0.05,0.218-0.334,0.512-0.309,0.738C428.996,205.975,429.436,206.177,429.436,206.405z"/>
					<path style="fill:none;stroke:#263238;stroke-linecap:round;stroke-linejoin:round;stroke-miterlimit:10;" d="M429.436,206.405
						c0,0.228-0.44,0.43-0.464,0.652c-0.025,0.226,0.358,0.52,0.309,0.738c-0.05,0.222-0.524,0.32-0.598,0.532
						c-0.075,0.214,0.233,0.586,0.136,0.788c-0.098,0.204-0.582,0.194-0.702,0.384c-0.12,0.191,0.097,0.623-0.043,0.799
						c-0.141,0.176-0.61,0.06-0.769,0.219c-0.159,0.159-0.043,0.628-0.219,0.769c-0.176,0.141-0.608-0.077-0.799,0.043
						c-0.19,0.12-0.18,0.603-0.384,0.701c-0.202,0.098-0.574-0.211-0.788-0.136c-0.211,0.074-0.31,0.547-0.531,0.598
						c-0.218,0.049-0.512-0.334-0.738-0.309c-0.222,0.025-0.423,0.464-0.652,0.464c-0.228,0-0.43-0.439-0.652-0.464
						c-0.226-0.025-0.52,0.359-0.738,0.309c-0.221-0.05-0.32-0.524-0.532-0.598c-0.214-0.075-0.586,0.233-0.788,0.136
						c-0.204-0.098-0.194-0.582-0.385-0.702c-0.191-0.12-0.623,0.097-0.799-0.043c-0.176-0.141-0.06-0.61-0.219-0.769
						c-0.159-0.159-0.628-0.043-0.769-0.219c-0.14-0.176,0.077-0.607-0.043-0.799c-0.12-0.19-0.603-0.18-0.701-0.384
						c-0.098-0.202,0.211-0.574,0.136-0.788c-0.074-0.211-0.547-0.31-0.598-0.531c-0.049-0.218,0.334-0.512,0.309-0.738
						c-0.025-0.222-0.464-0.423-0.464-0.651s0.439-0.43,0.464-0.652c0.025-0.226-0.358-0.52-0.309-0.738
						c0.05-0.222,0.524-0.32,0.598-0.532c0.075-0.214-0.233-0.586-0.136-0.788c0.098-0.204,0.582-0.194,0.702-0.384
						c0.12-0.191-0.097-0.623,0.043-0.799c0.141-0.176,0.61-0.06,0.769-0.219c0.16-0.159,0.043-0.628,0.219-0.769
						c0.176-0.14,0.607,0.077,0.799-0.043c0.19-0.12,0.18-0.603,0.384-0.701c0.202-0.097,0.574,0.211,0.788,0.136
						c0.211-0.074,0.31-0.547,0.532-0.598c0.218-0.05,0.512,0.334,0.738,0.309c0.222-0.025,0.423-0.464,0.652-0.464
						s0.43,0.439,0.652,0.464c0.226,0.025,0.52-0.358,0.738-0.309c0.221,0.05,0.32,0.524,0.532,0.598
						c0.214,0.075,0.586-0.233,0.788-0.136c0.204,0.098,0.194,0.582,0.384,0.702c0.191,0.12,0.623-0.097,0.799,0.043
						c0.176,0.141,0.06,0.61,0.219,0.769c0.159,0.159,0.629,0.043,0.769,0.219c0.14,0.176-0.077,0.607,0.043,0.799
						c0.12,0.19,0.603,0.18,0.701,0.384c0.098,0.202-0.211,0.574-0.136,0.788c0.074,0.211,0.547,0.31,0.598,0.531
						c0.05,0.218-0.334,0.512-0.309,0.738C428.996,205.975,429.436,206.177,429.436,206.405z"/>
				</g>
				<path style="fill:#92E3A9;" d="M425.507,206.405c0,1.278-1.036,2.314-2.314,2.314c-1.278,0-2.314-1.036-2.314-2.314
					c0-1.278,1.036-2.314,2.314-2.314C424.471,204.091,425.507,205.127,425.507,206.405z"/>
			</g>
			<g>
				<g>
					<path style="fill:#FFFFFF;" d="M432.166,219.638c0,0.273-0.526,0.514-0.555,0.78c-0.03,0.271,0.429,0.622,0.37,0.883
						c-0.06,0.265-0.627,0.383-0.715,0.636c-0.09,0.256,0.279,0.701,0.163,0.943c-0.118,0.244-0.696,0.232-0.84,0.46
						c-0.144,0.229,0.116,0.745-0.052,0.956c-0.168,0.211-0.73,0.071-0.92,0.262c-0.191,0.191-0.051,0.752-0.262,0.921
						c-0.211,0.168-0.727-0.092-0.956,0.052c-0.227,0.143-0.216,0.721-0.46,0.839c-0.242,0.117-0.687-0.252-0.943-0.163
						c-0.253,0.089-0.371,0.655-0.636,0.715c-0.261,0.059-0.612-0.4-0.883-0.37c-0.265,0.03-0.506,0.555-0.78,0.555
						c-0.273,0-0.514-0.526-0.78-0.555c-0.271-0.03-0.622,0.429-0.883,0.37c-0.265-0.06-0.383-0.627-0.636-0.715
						c-0.256-0.09-0.701,0.279-0.943,0.163c-0.244-0.118-0.232-0.696-0.46-0.84c-0.229-0.144-0.745,0.116-0.956-0.052
						c-0.211-0.169-0.071-0.73-0.262-0.921s-0.752-0.051-0.92-0.262c-0.168-0.21,0.092-0.727-0.052-0.956
						c-0.143-0.228-0.722-0.216-0.839-0.46c-0.117-0.242,0.252-0.687,0.163-0.943c-0.089-0.253-0.655-0.371-0.715-0.636
						c-0.059-0.261,0.4-0.612,0.37-0.883c-0.03-0.265-0.555-0.507-0.555-0.78c0-0.273,0.526-0.514,0.555-0.78
						c0.03-0.271-0.429-0.622-0.37-0.883c0.06-0.265,0.627-0.383,0.715-0.636c0.089-0.256-0.279-0.701-0.163-0.943
						c0.118-0.244,0.696-0.232,0.839-0.46c0.144-0.229-0.116-0.745,0.052-0.956c0.169-0.211,0.73-0.071,0.92-0.262
						c0.191-0.191,0.051-0.752,0.262-0.92c0.21-0.168,0.727,0.092,0.956-0.052c0.228-0.143,0.216-0.721,0.46-0.839
						c0.242-0.117,0.687,0.252,0.943,0.163c0.253-0.089,0.371-0.655,0.636-0.715c0.261-0.059,0.612,0.4,0.883,0.37
						c0.265-0.03,0.506-0.555,0.78-0.555c0.273,0,0.514,0.526,0.78,0.555c0.271,0.03,0.622-0.429,0.883-0.37
						c0.265,0.06,0.383,0.626,0.636,0.715c0.256,0.09,0.701-0.279,0.943-0.162c0.244,0.118,0.232,0.696,0.46,0.839
						c0.229,0.144,0.745-0.116,0.956,0.052c0.211,0.169,0.071,0.73,0.262,0.921c0.191,0.191,0.752,0.051,0.92,0.262
						c0.168,0.21-0.092,0.727,0.052,0.956c0.143,0.228,0.722,0.216,0.839,0.46c0.117,0.242-0.252,0.687-0.163,0.943
						c0.089,0.253,0.655,0.371,0.715,0.636c0.059,0.261-0.4,0.612-0.37,0.883C431.64,219.124,432.166,219.365,432.166,219.638z"/>
					<path style="fill:none;stroke:#263238;stroke-linecap:round;stroke-linejoin:round;stroke-miterlimit:10;" d="M432.166,219.638
						c0,0.273-0.526,0.514-0.555,0.78c-0.03,0.271,0.429,0.622,0.37,0.883c-0.06,0.265-0.627,0.383-0.715,0.636
						c-0.09,0.256,0.279,0.701,0.163,0.943c-0.118,0.244-0.696,0.232-0.84,0.46c-0.144,0.229,0.116,0.745-0.052,0.956
						c-0.168,0.211-0.73,0.071-0.92,0.262c-0.191,0.191-0.051,0.752-0.262,0.921c-0.211,0.168-0.727-0.092-0.956,0.052
						c-0.227,0.143-0.216,0.721-0.46,0.839c-0.242,0.117-0.687-0.252-0.943-0.163c-0.253,0.089-0.371,0.655-0.636,0.715
						c-0.261,0.059-0.612-0.4-0.883-0.37c-0.265,0.03-0.506,0.555-0.78,0.555c-0.273,0-0.514-0.526-0.78-0.555
						c-0.271-0.03-0.622,0.429-0.883,0.37c-0.265-0.06-0.383-0.627-0.636-0.715c-0.256-0.09-0.701,0.279-0.943,0.163
						c-0.244-0.118-0.232-0.696-0.46-0.84c-0.229-0.144-0.745,0.116-0.956-0.052c-0.211-0.169-0.071-0.73-0.262-0.921
						s-0.752-0.051-0.92-0.262c-0.168-0.21,0.092-0.727-0.052-0.956c-0.143-0.228-0.722-0.216-0.839-0.46
						c-0.117-0.242,0.252-0.687,0.163-0.943c-0.089-0.253-0.655-0.371-0.715-0.636c-0.059-0.261,0.4-0.612,0.37-0.883
						c-0.03-0.265-0.555-0.507-0.555-0.78c0-0.273,0.526-0.514,0.555-0.78c0.03-0.271-0.429-0.622-0.37-0.883
						c0.06-0.265,0.627-0.383,0.715-0.636c0.089-0.256-0.279-0.701-0.163-0.943c0.118-0.244,0.696-0.232,0.839-0.46
						c0.144-0.229-0.116-0.745,0.052-0.956c0.169-0.211,0.73-0.071,0.92-0.262c0.191-0.191,0.051-0.752,0.262-0.92
						c0.21-0.168,0.727,0.092,0.956-0.052c0.228-0.143,0.216-0.721,0.46-0.839c0.242-0.117,0.687,0.252,0.943,0.163
						c0.253-0.089,0.371-0.655,0.636-0.715c0.261-0.059,0.612,0.4,0.883,0.37c0.265-0.03,0.506-0.555,0.78-0.555
						c0.273,0,0.514,0.526,0.78,0.555c0.271,0.03,0.622-0.429,0.883-0.37c0.265,0.06,0.383,0.626,0.636,0.715
						c0.256,0.09,0.701-0.279,0.943-0.162c0.244,0.118,0.232,0.696,0.46,0.839c0.229,0.144,0.745-0.116,0.956,0.052
						c0.211,0.169,0.071,0.73,0.262,0.921c0.191,0.191,0.752,0.051,0.92,0.262c0.168,0.21-0.092,0.727,0.052,0.956
						c0.143,0.228,0.722,0.216,0.839,0.46c0.117,0.242-0.252,0.687-0.163,0.943c0.089,0.253,0.655,0.371,0.715,0.636
						c0.059,0.261-0.4,0.612-0.37,0.883C431.64,219.124,432.166,219.365,432.166,219.638z"/>
				</g>
				<circle style="fill:#92E3A9;" cx="424.696" cy="219.638" r="2.769"/>
			</g>
			<g>
				<g>
					<path style="fill:#FFFFFF;" d="M460.273,220.642c0,0.273-0.526,0.514-0.555,0.78c-0.03,0.271,0.429,0.622,0.37,0.883
						c-0.06,0.265-0.627,0.383-0.715,0.636c-0.09,0.256,0.279,0.701,0.163,0.943c-0.118,0.244-0.696,0.232-0.84,0.46
						c-0.144,0.229,0.116,0.745-0.052,0.956c-0.168,0.211-0.73,0.071-0.921,0.262c-0.191,0.191-0.051,0.752-0.262,0.921
						c-0.21,0.168-0.727-0.092-0.955,0.052c-0.228,0.143-0.216,0.721-0.46,0.839c-0.242,0.117-0.687-0.252-0.943-0.163
						c-0.253,0.089-0.371,0.655-0.636,0.715c-0.261,0.059-0.612-0.4-0.883-0.37c-0.265,0.03-0.506,0.555-0.78,0.555
						c-0.273,0-0.514-0.526-0.78-0.555c-0.271-0.03-0.622,0.429-0.883,0.37c-0.265-0.06-0.383-0.627-0.636-0.715
						c-0.256-0.09-0.701,0.279-0.943,0.163c-0.244-0.118-0.232-0.696-0.46-0.84c-0.229-0.144-0.745,0.116-0.956-0.052
						c-0.211-0.169-0.071-0.73-0.262-0.921c-0.191-0.191-0.752-0.051-0.92-0.262c-0.168-0.21,0.092-0.727-0.052-0.956
						c-0.143-0.228-0.721-0.216-0.839-0.46c-0.117-0.242,0.252-0.687,0.163-0.943c-0.089-0.253-0.655-0.371-0.715-0.636
						c-0.059-0.261,0.4-0.612,0.37-0.883c-0.029-0.265-0.555-0.507-0.555-0.78c0-0.273,0.526-0.514,0.555-0.78
						c0.03-0.271-0.429-0.622-0.37-0.883c0.06-0.265,0.626-0.383,0.715-0.636c0.09-0.256-0.279-0.701-0.162-0.943
						c0.118-0.244,0.696-0.232,0.839-0.46c0.144-0.229-0.116-0.745,0.052-0.956c0.168-0.211,0.73-0.071,0.92-0.262
						c0.191-0.191,0.051-0.752,0.262-0.92c0.21-0.168,0.727,0.092,0.956-0.052c0.227-0.143,0.216-0.721,0.46-0.839
						c0.242-0.117,0.687,0.252,0.943,0.163c0.253-0.089,0.371-0.655,0.636-0.715c0.261-0.059,0.612,0.4,0.883,0.37
						c0.265-0.029,0.506-0.555,0.78-0.555c0.273,0,0.514,0.526,0.78,0.555c0.271,0.03,0.622-0.429,0.883-0.369
						c0.265,0.06,0.383,0.626,0.636,0.715c0.256,0.09,0.701-0.279,0.943-0.162c0.244,0.118,0.232,0.696,0.46,0.839
						c0.229,0.144,0.745-0.116,0.956,0.052c0.211,0.169,0.071,0.73,0.262,0.921c0.191,0.191,0.752,0.051,0.921,0.262
						c0.168,0.21-0.092,0.727,0.052,0.956c0.143,0.228,0.722,0.216,0.839,0.46c0.117,0.242-0.252,0.687-0.163,0.943
						c0.089,0.253,0.655,0.371,0.715,0.636c0.059,0.261-0.4,0.612-0.37,0.883C459.748,220.127,460.273,220.368,460.273,220.642z"/>
					<path style="fill:none;stroke:#263238;stroke-linecap:round;stroke-linejoin:round;stroke-miterlimit:10;" d="M460.273,220.642
						c0,0.273-0.526,0.514-0.555,0.78c-0.03,0.271,0.429,0.622,0.37,0.883c-0.06,0.265-0.627,0.383-0.715,0.636
						c-0.09,0.256,0.279,0.701,0.163,0.943c-0.118,0.244-0.696,0.232-0.84,0.46c-0.144,0.229,0.116,0.745-0.052,0.956
						c-0.168,0.211-0.73,0.071-0.921,0.262c-0.191,0.191-0.051,0.752-0.262,0.921c-0.21,0.168-0.727-0.092-0.955,0.052
						c-0.228,0.143-0.216,0.721-0.46,0.839c-0.242,0.117-0.687-0.252-0.943-0.163c-0.253,0.089-0.371,0.655-0.636,0.715
						c-0.261,0.059-0.612-0.4-0.883-0.37c-0.265,0.03-0.506,0.555-0.78,0.555c-0.273,0-0.514-0.526-0.78-0.555
						c-0.271-0.03-0.622,0.429-0.883,0.37c-0.265-0.06-0.383-0.627-0.636-0.715c-0.256-0.09-0.701,0.279-0.943,0.163
						c-0.244-0.118-0.232-0.696-0.46-0.84c-0.229-0.144-0.745,0.116-0.956-0.052c-0.211-0.169-0.071-0.73-0.262-0.921
						c-0.191-0.191-0.752-0.051-0.92-0.262c-0.168-0.21,0.092-0.727-0.052-0.956c-0.143-0.228-0.721-0.216-0.839-0.46
						c-0.117-0.242,0.252-0.687,0.163-0.943c-0.089-0.253-0.655-0.371-0.715-0.636c-0.059-0.261,0.4-0.612,0.37-0.883
						c-0.029-0.265-0.555-0.507-0.555-0.78c0-0.273,0.526-0.514,0.555-0.78c0.03-0.271-0.429-0.622-0.37-0.883
						c0.06-0.265,0.626-0.383,0.715-0.636c0.09-0.256-0.279-0.701-0.162-0.943c0.118-0.244,0.696-0.232,0.839-0.46
						c0.144-0.229-0.116-0.745,0.052-0.956c0.168-0.211,0.73-0.071,0.92-0.262c0.191-0.191,0.051-0.752,0.262-0.92
						c0.21-0.168,0.727,0.092,0.956-0.052c0.227-0.143,0.216-0.721,0.46-0.839c0.242-0.117,0.687,0.252,0.943,0.163
						c0.253-0.089,0.371-0.655,0.636-0.715c0.261-0.059,0.612,0.4,0.883,0.37c0.265-0.029,0.506-0.555,0.78-0.555
						c0.273,0,0.514,0.526,0.78,0.555c0.271,0.03,0.622-0.429,0.883-0.369c0.265,0.06,0.383,0.626,0.636,0.715
						c0.256,0.09,0.701-0.279,0.943-0.162c0.244,0.118,0.232,0.696,0.46,0.839c0.229,0.144,0.745-0.116,0.956,0.052
						c0.211,0.169,0.071,0.73,0.262,0.921c0.191,0.191,0.752,0.051,0.921,0.262c0.168,0.21-0.092,0.727,0.052,0.956
						c0.143,0.228,0.722,0.216,0.839,0.46c0.117,0.242-0.252,0.687-0.163,0.943c0.089,0.253,0.655,0.371,0.715,0.636
						c0.059,0.261-0.4,0.612-0.37,0.883C459.748,220.127,460.273,220.368,460.273,220.642z"/>
				</g>
				<circle style="fill:#92E3A9;" cx="452.804" cy="220.642" r="2.769"/>
			</g>
			<g>
				<g>
					<path style="fill:#FFFFFF;" d="M448.623,213.016c0,0.273-0.526,0.514-0.555,0.78c-0.03,0.271,0.429,0.622,0.37,0.883
						c-0.06,0.265-0.627,0.383-0.715,0.636c-0.09,0.256,0.279,0.701,0.162,0.943c-0.118,0.244-0.696,0.232-0.839,0.46
						c-0.144,0.229,0.116,0.745-0.052,0.956c-0.169,0.211-0.73,0.071-0.921,0.262c-0.191,0.191-0.051,0.752-0.262,0.92
						c-0.211,0.168-0.727-0.092-0.956,0.052c-0.228,0.143-0.216,0.722-0.46,0.839c-0.242,0.117-0.687-0.252-0.943-0.163
						c-0.253,0.089-0.371,0.655-0.636,0.715c-0.261,0.059-0.612-0.4-0.883-0.37c-0.265,0.03-0.507,0.555-0.78,0.555
						c-0.273,0-0.514-0.526-0.78-0.555c-0.271-0.03-0.622,0.429-0.883,0.37c-0.265-0.06-0.383-0.627-0.636-0.715
						c-0.256-0.09-0.701,0.279-0.943,0.162c-0.244-0.118-0.232-0.696-0.46-0.839c-0.229-0.144-0.745,0.116-0.956-0.052
						c-0.211-0.169-0.071-0.73-0.262-0.921c-0.191-0.191-0.752-0.051-0.92-0.262c-0.168-0.211,0.092-0.727-0.052-0.956
						c-0.143-0.228-0.722-0.216-0.839-0.46c-0.117-0.242,0.252-0.687,0.163-0.943c-0.089-0.253-0.655-0.371-0.715-0.636
						c-0.059-0.261,0.4-0.612,0.37-0.883c-0.03-0.265-0.555-0.506-0.555-0.78c0-0.273,0.526-0.514,0.555-0.78
						c0.03-0.271-0.429-0.622-0.37-0.883c0.06-0.265,0.627-0.383,0.715-0.636c0.089-0.256-0.279-0.701-0.163-0.943
						c0.118-0.244,0.696-0.232,0.839-0.46c0.144-0.229-0.116-0.745,0.052-0.956c0.169-0.211,0.73-0.071,0.92-0.262
						c0.191-0.191,0.051-0.752,0.262-0.92c0.211-0.168,0.727,0.092,0.956-0.052c0.228-0.143,0.216-0.722,0.46-0.839
						c0.242-0.117,0.687,0.252,0.943,0.162c0.253-0.089,0.371-0.655,0.636-0.715c0.261-0.059,0.612,0.4,0.883,0.37
						c0.265-0.029,0.506-0.555,0.78-0.555c0.273,0,0.514,0.526,0.78,0.555c0.271,0.03,0.622-0.429,0.883-0.369
						c0.265,0.06,0.383,0.627,0.636,0.715c0.256,0.09,0.701-0.279,0.943-0.162c0.244,0.118,0.232,0.696,0.46,0.839
						c0.229,0.144,0.745-0.116,0.956,0.052c0.211,0.168,0.071,0.73,0.262,0.92c0.191,0.191,0.752,0.051,0.92,0.262
						c0.168,0.21-0.092,0.727,0.052,0.956c0.143,0.228,0.722,0.216,0.839,0.46c0.117,0.242-0.252,0.687-0.163,0.943
						c0.089,0.253,0.655,0.371,0.715,0.636c0.059,0.261-0.4,0.612-0.37,0.883C448.097,212.502,448.623,212.743,448.623,213.016z"/>
					<path style="fill:none;stroke:#263238;stroke-linecap:round;stroke-linejoin:round;stroke-miterlimit:10;" d="M448.623,213.016
						c0,0.273-0.526,0.514-0.555,0.78c-0.03,0.271,0.429,0.622,0.37,0.883c-0.06,0.265-0.627,0.383-0.715,0.636
						c-0.09,0.256,0.279,0.701,0.162,0.943c-0.118,0.244-0.696,0.232-0.839,0.46c-0.144,0.229,0.116,0.745-0.052,0.956
						c-0.169,0.211-0.73,0.071-0.921,0.262c-0.191,0.191-0.051,0.752-0.262,0.92c-0.211,0.168-0.727-0.092-0.956,0.052
						c-0.228,0.143-0.216,0.722-0.46,0.839c-0.242,0.117-0.687-0.252-0.943-0.163c-0.253,0.089-0.371,0.655-0.636,0.715
						c-0.261,0.059-0.612-0.4-0.883-0.37c-0.265,0.03-0.507,0.555-0.78,0.555c-0.273,0-0.514-0.526-0.78-0.555
						c-0.271-0.03-0.622,0.429-0.883,0.37c-0.265-0.06-0.383-0.627-0.636-0.715c-0.256-0.09-0.701,0.279-0.943,0.162
						c-0.244-0.118-0.232-0.696-0.46-0.839c-0.229-0.144-0.745,0.116-0.956-0.052c-0.211-0.169-0.071-0.73-0.262-0.921
						c-0.191-0.191-0.752-0.051-0.92-0.262c-0.168-0.211,0.092-0.727-0.052-0.956c-0.143-0.228-0.722-0.216-0.839-0.46
						c-0.117-0.242,0.252-0.687,0.163-0.943c-0.089-0.253-0.655-0.371-0.715-0.636c-0.059-0.261,0.4-0.612,0.37-0.883
						c-0.03-0.265-0.555-0.506-0.555-0.78c0-0.273,0.526-0.514,0.555-0.78c0.03-0.271-0.429-0.622-0.37-0.883
						c0.06-0.265,0.627-0.383,0.715-0.636c0.089-0.256-0.279-0.701-0.163-0.943c0.118-0.244,0.696-0.232,0.839-0.46
						c0.144-0.229-0.116-0.745,0.052-0.956c0.169-0.211,0.73-0.071,0.92-0.262c0.191-0.191,0.051-0.752,0.262-0.92
						c0.211-0.168,0.727,0.092,0.956-0.052c0.228-0.143,0.216-0.722,0.46-0.839c0.242-0.117,0.687,0.252,0.943,0.162
						c0.253-0.089,0.371-0.655,0.636-0.715c0.261-0.059,0.612,0.4,0.883,0.37c0.265-0.029,0.506-0.555,0.78-0.555
						c0.273,0,0.514,0.526,0.78,0.555c0.271,0.03,0.622-0.429,0.883-0.369c0.265,0.06,0.383,0.627,0.636,0.715
						c0.256,0.09,0.701-0.279,0.943-0.162c0.244,0.118,0.232,0.696,0.46,0.839c0.229,0.144,0.745-0.116,0.956,0.052
						c0.211,0.168,0.071,0.73,0.262,0.92c0.191,0.191,0.752,0.051,0.92,0.262c0.168,0.21-0.092,0.727,0.052,0.956
						c0.143,0.228,0.722,0.216,0.839,0.46c0.117,0.242-0.252,0.687-0.163,0.943c0.089,0.253,0.655,0.371,0.715,0.636
						c0.059,0.261-0.4,0.612-0.37,0.883C448.097,212.502,448.623,212.743,448.623,213.016z"/>
				</g>
				<path style="fill:#92E3A9;" d="M443.923,213.016c0,1.529-1.24,2.769-2.769,2.769c-1.529,0-2.769-1.24-2.769-2.769
					c0-1.529,1.24-2.769,2.769-2.769C442.683,210.247,443.923,211.487,443.923,213.016z"/>
			</g>
			<g>
				<g>
					<path style="fill:#FFFFFF;" d="M428.076,195.223c0,0.273-0.526,0.514-0.555,0.78c-0.03,0.271,0.429,0.622,0.37,0.883
						c-0.06,0.265-0.627,0.383-0.715,0.636c-0.09,0.256,0.279,0.701,0.162,0.943c-0.118,0.244-0.696,0.232-0.839,0.46
						c-0.144,0.229,0.116,0.745-0.052,0.956c-0.169,0.211-0.73,0.071-0.92,0.262c-0.191,0.191-0.051,0.752-0.262,0.921
						c-0.211,0.168-0.727-0.092-0.956,0.052c-0.227,0.143-0.216,0.721-0.46,0.839c-0.242,0.117-0.687-0.252-0.943-0.162
						c-0.253,0.089-0.371,0.655-0.636,0.715c-0.261,0.059-0.612-0.4-0.883-0.37c-0.265,0.03-0.506,0.555-0.78,0.555
						c-0.273,0-0.514-0.526-0.78-0.555c-0.271-0.03-0.622,0.429-0.883,0.37c-0.265-0.06-0.383-0.627-0.636-0.715
						c-0.256-0.09-0.701,0.279-0.943,0.162c-0.244-0.118-0.232-0.696-0.46-0.839c-0.229-0.144-0.745,0.116-0.956-0.052
						c-0.211-0.169-0.071-0.73-0.262-0.921c-0.191-0.191-0.752-0.051-0.92-0.262c-0.168-0.211,0.092-0.727-0.052-0.956
						c-0.143-0.228-0.722-0.216-0.839-0.46c-0.117-0.242,0.252-0.687,0.163-0.943c-0.089-0.253-0.655-0.371-0.715-0.636
						c-0.059-0.261,0.4-0.612,0.37-0.883c-0.03-0.265-0.555-0.507-0.555-0.78c0-0.273,0.526-0.514,0.555-0.78
						c0.03-0.271-0.429-0.622-0.37-0.883c0.06-0.265,0.627-0.383,0.715-0.636c0.089-0.256-0.279-0.701-0.163-0.943
						c0.118-0.244,0.696-0.232,0.839-0.46c0.144-0.229-0.116-0.745,0.052-0.956c0.169-0.211,0.73-0.071,0.92-0.262
						c0.191-0.191,0.051-0.752,0.262-0.92c0.21-0.168,0.727,0.092,0.956-0.052c0.227-0.143,0.216-0.721,0.46-0.839
						c0.242-0.117,0.687,0.252,0.943,0.162c0.253-0.089,0.371-0.655,0.636-0.715c0.261-0.059,0.612,0.4,0.883,0.37
						c0.265-0.029,0.506-0.555,0.78-0.555c0.273,0,0.514,0.526,0.78,0.555c0.271,0.03,0.622-0.429,0.883-0.369
						c0.265,0.06,0.383,0.626,0.636,0.715c0.256,0.09,0.701-0.279,0.943-0.162c0.244,0.118,0.232,0.696,0.46,0.839
						c0.229,0.144,0.745-0.116,0.956,0.052c0.211,0.168,0.071,0.73,0.262,0.92c0.191,0.191,0.752,0.051,0.92,0.262
						c0.168,0.21-0.092,0.727,0.052,0.956c0.143,0.228,0.722,0.216,0.839,0.46c0.117,0.242-0.252,0.687-0.163,0.943
						c0.089,0.253,0.655,0.371,0.715,0.636c0.059,0.261-0.4,0.612-0.37,0.883C427.551,194.709,428.076,194.95,428.076,195.223z"/>
					<path style="fill:none;stroke:#263238;stroke-linecap:round;stroke-linejoin:round;stroke-miterlimit:10;" d="M428.076,195.223
						c0,0.273-0.526,0.514-0.555,0.78c-0.03,0.271,0.429,0.622,0.37,0.883c-0.06,0.265-0.627,0.383-0.715,0.636
						c-0.09,0.256,0.279,0.701,0.162,0.943c-0.118,0.244-0.696,0.232-0.839,0.46c-0.144,0.229,0.116,0.745-0.052,0.956
						c-0.169,0.211-0.73,0.071-0.92,0.262c-0.191,0.191-0.051,0.752-0.262,0.921c-0.211,0.168-0.727-0.092-0.956,0.052
						c-0.227,0.143-0.216,0.721-0.46,0.839c-0.242,0.117-0.687-0.252-0.943-0.162c-0.253,0.089-0.371,0.655-0.636,0.715
						c-0.261,0.059-0.612-0.4-0.883-0.37c-0.265,0.03-0.506,0.555-0.78,0.555c-0.273,0-0.514-0.526-0.78-0.555
						c-0.271-0.03-0.622,0.429-0.883,0.37c-0.265-0.06-0.383-0.627-0.636-0.715c-0.256-0.09-0.701,0.279-0.943,0.162
						c-0.244-0.118-0.232-0.696-0.46-0.839c-0.229-0.144-0.745,0.116-0.956-0.052c-0.211-0.169-0.071-0.73-0.262-0.921
						c-0.191-0.191-0.752-0.051-0.92-0.262c-0.168-0.211,0.092-0.727-0.052-0.956c-0.143-0.228-0.722-0.216-0.839-0.46
						c-0.117-0.242,0.252-0.687,0.163-0.943c-0.089-0.253-0.655-0.371-0.715-0.636c-0.059-0.261,0.4-0.612,0.37-0.883
						c-0.03-0.265-0.555-0.507-0.555-0.78c0-0.273,0.526-0.514,0.555-0.78c0.03-0.271-0.429-0.622-0.37-0.883
						c0.06-0.265,0.627-0.383,0.715-0.636c0.089-0.256-0.279-0.701-0.163-0.943c0.118-0.244,0.696-0.232,0.839-0.46
						c0.144-0.229-0.116-0.745,0.052-0.956c0.169-0.211,0.73-0.071,0.92-0.262c0.191-0.191,0.051-0.752,0.262-0.92
						c0.21-0.168,0.727,0.092,0.956-0.052c0.227-0.143,0.216-0.721,0.46-0.839c0.242-0.117,0.687,0.252,0.943,0.162
						c0.253-0.089,0.371-0.655,0.636-0.715c0.261-0.059,0.612,0.4,0.883,0.37c0.265-0.029,0.506-0.555,0.78-0.555
						c0.273,0,0.514,0.526,0.78,0.555c0.271,0.03,0.622-0.429,0.883-0.369c0.265,0.06,0.383,0.626,0.636,0.715
						c0.256,0.09,0.701-0.279,0.943-0.162c0.244,0.118,0.232,0.696,0.46,0.839c0.229,0.144,0.745-0.116,0.956,0.052
						c0.211,0.168,0.071,0.73,0.262,0.92c0.191,0.191,0.752,0.051,0.92,0.262c0.168,0.21-0.092,0.727,0.052,0.956
						c0.143,0.228,0.722,0.216,0.839,0.46c0.117,0.242-0.252,0.687-0.163,0.943c0.089,0.253,0.655,0.371,0.715,0.636
						c0.059,0.261-0.4,0.612-0.37,0.883C427.551,194.709,428.076,194.95,428.076,195.223z"/>
				</g>
				<path style="fill:#92E3A9;" d="M423.376,195.223c0,1.529-1.24,2.769-2.769,2.769s-2.769-1.24-2.769-2.769
					c0-1.529,1.24-2.769,2.769-2.769S423.376,193.694,423.376,195.223z"/>
			</g>
			<g>
				<g>
					<path style="fill:#FFFFFF;" d="M459.214,188.233c0,0.273-0.526,0.514-0.556,0.78c-0.03,0.271,0.429,0.622,0.37,0.883
						c-0.06,0.265-0.627,0.383-0.715,0.636c-0.09,0.256,0.279,0.701,0.162,0.943c-0.118,0.244-0.696,0.232-0.839,0.46
						c-0.144,0.229,0.116,0.745-0.052,0.956c-0.168,0.211-0.73,0.071-0.921,0.262c-0.191,0.191-0.051,0.752-0.262,0.92
						c-0.21,0.168-0.727-0.092-0.956,0.052c-0.228,0.143-0.216,0.721-0.46,0.839c-0.242,0.117-0.687-0.252-0.943-0.162
						c-0.253,0.089-0.371,0.655-0.636,0.715c-0.261,0.059-0.612-0.4-0.883-0.37c-0.265,0.029-0.506,0.555-0.78,0.555
						c-0.273,0-0.514-0.526-0.78-0.555c-0.271-0.03-0.622,0.429-0.883,0.369c-0.265-0.06-0.383-0.626-0.636-0.715
						c-0.256-0.09-0.701,0.279-0.943,0.162c-0.244-0.118-0.232-0.696-0.46-0.839c-0.229-0.144-0.745,0.116-0.956-0.052
						c-0.211-0.168-0.071-0.73-0.262-0.921c-0.191-0.191-0.752-0.051-0.92-0.262c-0.168-0.21,0.092-0.727-0.052-0.956
						c-0.143-0.228-0.722-0.216-0.839-0.46c-0.117-0.242,0.252-0.687,0.163-0.943c-0.089-0.253-0.655-0.371-0.715-0.636
						c-0.059-0.261,0.4-0.612,0.37-0.883c-0.03-0.265-0.555-0.507-0.555-0.78c0-0.273,0.526-0.514,0.555-0.78
						c0.03-0.271-0.429-0.622-0.37-0.883c0.06-0.265,0.627-0.383,0.715-0.636c0.09-0.256-0.279-0.701-0.163-0.943
						c0.118-0.244,0.696-0.232,0.84-0.46c0.144-0.229-0.116-0.745,0.052-0.956c0.169-0.211,0.73-0.071,0.921-0.262
						c0.191-0.191,0.051-0.752,0.262-0.921c0.211-0.168,0.727,0.092,0.956-0.052c0.228-0.143,0.216-0.722,0.46-0.839
						c0.242-0.117,0.687,0.252,0.943,0.163c0.253-0.089,0.371-0.655,0.636-0.715c0.261-0.059,0.612,0.4,0.883,0.37
						c0.265-0.03,0.506-0.555,0.779-0.555c0.273,0,0.514,0.526,0.78,0.555c0.271,0.03,0.622-0.429,0.883-0.37
						c0.265,0.06,0.383,0.627,0.636,0.715c0.256,0.09,0.701-0.279,0.943-0.162c0.244,0.118,0.232,0.696,0.46,0.839
						c0.229,0.144,0.745-0.116,0.956,0.052c0.211,0.169,0.071,0.73,0.262,0.921c0.191,0.191,0.752,0.051,0.92,0.262
						c0.168,0.211-0.092,0.727,0.052,0.956c0.143,0.228,0.722,0.216,0.839,0.46c0.117,0.242-0.252,0.687-0.163,0.943
						c0.089,0.253,0.655,0.371,0.715,0.636c0.059,0.261-0.4,0.612-0.37,0.883C458.688,187.719,459.214,187.96,459.214,188.233z"/>
					<path style="fill:none;stroke:#263238;stroke-linecap:round;stroke-linejoin:round;stroke-miterlimit:10;" d="M459.214,188.233
						c0,0.273-0.526,0.514-0.556,0.78c-0.03,0.271,0.429,0.622,0.37,0.883c-0.06,0.265-0.627,0.383-0.715,0.636
						c-0.09,0.256,0.279,0.701,0.162,0.943c-0.118,0.244-0.696,0.232-0.839,0.46c-0.144,0.229,0.116,0.745-0.052,0.956
						c-0.168,0.211-0.73,0.071-0.921,0.262c-0.191,0.191-0.051,0.752-0.262,0.92c-0.21,0.168-0.727-0.092-0.956,0.052
						c-0.228,0.143-0.216,0.721-0.46,0.839c-0.242,0.117-0.687-0.252-0.943-0.162c-0.253,0.089-0.371,0.655-0.636,0.715
						c-0.261,0.059-0.612-0.4-0.883-0.37c-0.265,0.029-0.506,0.555-0.78,0.555c-0.273,0-0.514-0.526-0.78-0.555
						c-0.271-0.03-0.622,0.429-0.883,0.369c-0.265-0.06-0.383-0.626-0.636-0.715c-0.256-0.09-0.701,0.279-0.943,0.162
						c-0.244-0.118-0.232-0.696-0.46-0.839c-0.229-0.144-0.745,0.116-0.956-0.052c-0.211-0.168-0.071-0.73-0.262-0.921
						c-0.191-0.191-0.752-0.051-0.92-0.262c-0.168-0.21,0.092-0.727-0.052-0.956c-0.143-0.228-0.722-0.216-0.839-0.46
						c-0.117-0.242,0.252-0.687,0.163-0.943c-0.089-0.253-0.655-0.371-0.715-0.636c-0.059-0.261,0.4-0.612,0.37-0.883
						c-0.03-0.265-0.555-0.507-0.555-0.78c0-0.273,0.526-0.514,0.555-0.78c0.03-0.271-0.429-0.622-0.37-0.883
						c0.06-0.265,0.627-0.383,0.715-0.636c0.09-0.256-0.279-0.701-0.163-0.943c0.118-0.244,0.696-0.232,0.84-0.46
						c0.144-0.229-0.116-0.745,0.052-0.956c0.169-0.211,0.73-0.071,0.921-0.262c0.191-0.191,0.051-0.752,0.262-0.921
						c0.211-0.168,0.727,0.092,0.956-0.052c0.228-0.143,0.216-0.722,0.46-0.839c0.242-0.117,0.687,0.252,0.943,0.163
						c0.253-0.089,0.371-0.655,0.636-0.715c0.261-0.059,0.612,0.4,0.883,0.37c0.265-0.03,0.506-0.555,0.779-0.555
						c0.273,0,0.514,0.526,0.78,0.555c0.271,0.03,0.622-0.429,0.883-0.37c0.265,0.06,0.383,0.627,0.636,0.715
						c0.256,0.09,0.701-0.279,0.943-0.162c0.244,0.118,0.232,0.696,0.46,0.839c0.229,0.144,0.745-0.116,0.956,0.052
						c0.211,0.169,0.071,0.73,0.262,0.921c0.191,0.191,0.752,0.051,0.92,0.262c0.168,0.211-0.092,0.727,0.052,0.956
						c0.143,0.228,0.722,0.216,0.839,0.46c0.117,0.242-0.252,0.687-0.163,0.943c0.089,0.253,0.655,0.371,0.715,0.636
						c0.059,0.261-0.4,0.612-0.37,0.883C458.688,187.719,459.214,187.96,459.214,188.233z"/>
				</g>
				<circle style="fill:#92E3A9;" cx="451.745" cy="188.233" r="2.769"/>
			</g>
			<g>
				<g>
					<path style="fill:#FFFFFF;" d="M452.86,199.036c0,0.273-0.526,0.514-0.555,0.78c-0.03,0.271,0.429,0.622,0.369,0.883
						c-0.06,0.265-0.627,0.383-0.715,0.636c-0.09,0.256,0.279,0.701,0.162,0.943c-0.118,0.244-0.696,0.232-0.839,0.46
						c-0.144,0.229,0.116,0.745-0.052,0.956c-0.168,0.211-0.73,0.071-0.92,0.262c-0.191,0.191-0.051,0.752-0.262,0.921
						c-0.21,0.168-0.727-0.092-0.956,0.052c-0.227,0.143-0.216,0.721-0.46,0.839c-0.242,0.117-0.687-0.252-0.943-0.162
						c-0.253,0.088-0.371,0.655-0.636,0.715c-0.261,0.059-0.612-0.4-0.883-0.37c-0.265,0.029-0.506,0.555-0.78,0.555
						s-0.514-0.526-0.78-0.555c-0.271-0.03-0.622,0.429-0.883,0.369c-0.265-0.06-0.383-0.626-0.636-0.715
						c-0.256-0.09-0.701,0.279-0.943,0.163c-0.244-0.118-0.232-0.696-0.46-0.839c-0.229-0.144-0.745,0.116-0.956-0.052
						c-0.211-0.169-0.072-0.73-0.262-0.921c-0.191-0.191-0.752-0.051-0.92-0.262c-0.168-0.21,0.092-0.727-0.052-0.956
						c-0.143-0.228-0.722-0.216-0.839-0.46c-0.117-0.242,0.252-0.687,0.163-0.943c-0.089-0.253-0.655-0.371-0.715-0.636
						c-0.059-0.261,0.4-0.612,0.37-0.883c-0.03-0.265-0.555-0.507-0.555-0.78c0-0.273,0.526-0.514,0.555-0.78
						c0.03-0.271-0.429-0.622-0.37-0.883c0.06-0.265,0.627-0.383,0.715-0.636c0.09-0.256-0.279-0.701-0.163-0.943
						c0.118-0.244,0.696-0.232,0.84-0.46c0.144-0.229-0.116-0.745,0.052-0.956c0.168-0.211,0.73-0.071,0.921-0.262
						c0.191-0.191,0.051-0.752,0.262-0.921c0.211-0.168,0.727,0.092,0.956-0.052c0.228-0.143,0.216-0.722,0.46-0.839
						c0.242-0.117,0.687,0.252,0.943,0.163c0.253-0.089,0.371-0.655,0.636-0.715c0.261-0.059,0.612,0.4,0.883,0.37
						c0.265-0.03,0.507-0.555,0.78-0.555c0.273,0,0.514,0.526,0.78,0.555c0.271,0.03,0.622-0.429,0.883-0.37
						c0.265,0.06,0.383,0.627,0.636,0.715c0.256,0.09,0.701-0.279,0.943-0.163c0.244,0.118,0.232,0.696,0.46,0.84
						c0.229,0.144,0.745-0.116,0.956,0.052c0.211,0.169,0.071,0.73,0.262,0.921s0.752,0.051,0.92,0.262
						c0.168,0.21-0.092,0.727,0.052,0.956c0.143,0.228,0.721,0.216,0.839,0.46c0.117,0.242-0.252,0.687-0.163,0.943
						c0.089,0.253,0.655,0.371,0.715,0.636c0.059,0.261-0.4,0.612-0.37,0.883C452.334,198.521,452.86,198.763,452.86,199.036z"/>
					<path style="fill:none;stroke:#263238;stroke-linecap:round;stroke-linejoin:round;stroke-miterlimit:10;" d="M452.86,199.036
						c0,0.273-0.526,0.514-0.555,0.78c-0.03,0.271,0.429,0.622,0.369,0.883c-0.06,0.265-0.627,0.383-0.715,0.636
						c-0.09,0.256,0.279,0.701,0.162,0.943c-0.118,0.244-0.696,0.232-0.839,0.46c-0.144,0.229,0.116,0.745-0.052,0.956
						c-0.168,0.211-0.73,0.071-0.92,0.262c-0.191,0.191-0.051,0.752-0.262,0.921c-0.21,0.168-0.727-0.092-0.956,0.052
						c-0.227,0.143-0.216,0.721-0.46,0.839c-0.242,0.117-0.687-0.252-0.943-0.162c-0.253,0.088-0.371,0.655-0.636,0.715
						c-0.261,0.059-0.612-0.4-0.883-0.37c-0.265,0.029-0.506,0.555-0.78,0.555s-0.514-0.526-0.78-0.555
						c-0.271-0.03-0.622,0.429-0.883,0.369c-0.265-0.06-0.383-0.626-0.636-0.715c-0.256-0.09-0.701,0.279-0.943,0.163
						c-0.244-0.118-0.232-0.696-0.46-0.839c-0.229-0.144-0.745,0.116-0.956-0.052c-0.211-0.169-0.072-0.73-0.262-0.921
						c-0.191-0.191-0.752-0.051-0.92-0.262c-0.168-0.21,0.092-0.727-0.052-0.956c-0.143-0.228-0.722-0.216-0.839-0.46
						c-0.117-0.242,0.252-0.687,0.163-0.943c-0.089-0.253-0.655-0.371-0.715-0.636c-0.059-0.261,0.4-0.612,0.37-0.883
						c-0.03-0.265-0.555-0.507-0.555-0.78c0-0.273,0.526-0.514,0.555-0.78c0.03-0.271-0.429-0.622-0.37-0.883
						c0.06-0.265,0.627-0.383,0.715-0.636c0.09-0.256-0.279-0.701-0.163-0.943c0.118-0.244,0.696-0.232,0.84-0.46
						c0.144-0.229-0.116-0.745,0.052-0.956c0.168-0.211,0.73-0.071,0.921-0.262c0.191-0.191,0.051-0.752,0.262-0.921
						c0.211-0.168,0.727,0.092,0.956-0.052c0.228-0.143,0.216-0.722,0.46-0.839c0.242-0.117,0.687,0.252,0.943,0.163
						c0.253-0.089,0.371-0.655,0.636-0.715c0.261-0.059,0.612,0.4,0.883,0.37c0.265-0.03,0.507-0.555,0.78-0.555
						c0.273,0,0.514,0.526,0.78,0.555c0.271,0.03,0.622-0.429,0.883-0.37c0.265,0.06,0.383,0.627,0.636,0.715
						c0.256,0.09,0.701-0.279,0.943-0.163c0.244,0.118,0.232,0.696,0.46,0.84c0.229,0.144,0.745-0.116,0.956,0.052
						c0.211,0.169,0.071,0.73,0.262,0.921s0.752,0.051,0.92,0.262c0.168,0.21-0.092,0.727,0.052,0.956
						c0.143,0.228,0.721,0.216,0.839,0.46c0.117,0.242-0.252,0.687-0.163,0.943c0.089,0.253,0.655,0.371,0.715,0.636
						c0.059,0.261-0.4,0.612-0.37,0.883C452.334,198.521,452.86,198.763,452.86,199.036z"/>
				</g>
				<circle style="fill:#92E3A9;" cx="445.39" cy="199.036" r="2.769"/>
			</g>
			<g>
				<g>
					<path style="fill:#FFFFFF;" d="M438.332,204.499c0,0.228-0.439,0.43-0.464,0.652c-0.025,0.226,0.358,0.52,0.309,0.738
						c-0.05,0.222-0.524,0.32-0.598,0.532c-0.075,0.214,0.233,0.586,0.136,0.788c-0.098,0.204-0.582,0.194-0.702,0.385
						c-0.12,0.191,0.097,0.623-0.043,0.799c-0.141,0.176-0.61,0.06-0.77,0.219c-0.159,0.159-0.043,0.628-0.219,0.769
						c-0.176,0.141-0.607-0.077-0.799,0.043c-0.19,0.12-0.181,0.603-0.384,0.701c-0.202,0.098-0.574-0.211-0.788-0.136
						c-0.211,0.074-0.31,0.547-0.531,0.598c-0.218,0.049-0.512-0.334-0.738-0.309c-0.222,0.025-0.423,0.464-0.651,0.464
						c-0.228,0-0.43-0.439-0.652-0.464c-0.226-0.025-0.52,0.359-0.738,0.309c-0.221-0.05-0.32-0.524-0.532-0.598
						c-0.214-0.075-0.586,0.233-0.788,0.136c-0.204-0.098-0.194-0.582-0.384-0.702c-0.191-0.12-0.623,0.097-0.799-0.043
						c-0.176-0.141-0.06-0.61-0.219-0.769c-0.159-0.159-0.629-0.043-0.769-0.219c-0.141-0.176,0.077-0.607-0.043-0.799
						c-0.12-0.19-0.603-0.181-0.701-0.384c-0.098-0.202,0.211-0.574,0.136-0.788c-0.074-0.211-0.547-0.31-0.598-0.532
						c-0.049-0.218,0.334-0.512,0.309-0.738c-0.025-0.222-0.464-0.423-0.464-0.652s0.439-0.43,0.464-0.652
						c0.025-0.226-0.359-0.52-0.309-0.738c0.05-0.222,0.524-0.32,0.598-0.532c0.075-0.214-0.233-0.586-0.136-0.788
						c0.098-0.204,0.582-0.194,0.702-0.384c0.12-0.191-0.097-0.623,0.043-0.799c0.141-0.176,0.61-0.06,0.769-0.219
						c0.159-0.159,0.043-0.628,0.219-0.769c0.176-0.141,0.608,0.077,0.799-0.043c0.19-0.12,0.181-0.603,0.384-0.701
						c0.202-0.097,0.574,0.211,0.788,0.136c0.212-0.074,0.31-0.547,0.532-0.598c0.218-0.05,0.512,0.334,0.738,0.309
						c0.222-0.025,0.423-0.464,0.652-0.464s0.43,0.439,0.652,0.464c0.226,0.025,0.52-0.359,0.738-0.309
						c0.221,0.05,0.32,0.524,0.532,0.598c0.214,0.075,0.586-0.233,0.788-0.136c0.204,0.098,0.194,0.582,0.385,0.702
						c0.191,0.12,0.623-0.097,0.799,0.043c0.176,0.141,0.06,0.61,0.219,0.769c0.159,0.159,0.628,0.043,0.769,0.219
						c0.141,0.176-0.077,0.607,0.043,0.799c0.12,0.19,0.603,0.181,0.701,0.384c0.098,0.202-0.211,0.574-0.136,0.788
						c0.074,0.211,0.547,0.31,0.598,0.532c0.05,0.218-0.334,0.512-0.309,0.738C437.893,204.069,438.332,204.271,438.332,204.499z"/>
					<path style="fill:none;stroke:#263238;stroke-linecap:round;stroke-linejoin:round;stroke-miterlimit:10;" d="M438.332,204.499
						c0,0.228-0.439,0.43-0.464,0.652c-0.025,0.226,0.358,0.52,0.309,0.738c-0.05,0.222-0.524,0.32-0.598,0.532
						c-0.075,0.214,0.233,0.586,0.136,0.788c-0.098,0.204-0.582,0.194-0.702,0.385c-0.12,0.191,0.097,0.623-0.043,0.799
						c-0.141,0.176-0.61,0.06-0.77,0.219c-0.159,0.159-0.043,0.628-0.219,0.769c-0.176,0.141-0.607-0.077-0.799,0.043
						c-0.19,0.12-0.181,0.603-0.384,0.701c-0.202,0.098-0.574-0.211-0.788-0.136c-0.211,0.074-0.31,0.547-0.531,0.598
						c-0.218,0.049-0.512-0.334-0.738-0.309c-0.222,0.025-0.423,0.464-0.651,0.464c-0.228,0-0.43-0.439-0.652-0.464
						c-0.226-0.025-0.52,0.359-0.738,0.309c-0.221-0.05-0.32-0.524-0.532-0.598c-0.214-0.075-0.586,0.233-0.788,0.136
						c-0.204-0.098-0.194-0.582-0.384-0.702c-0.191-0.12-0.623,0.097-0.799-0.043c-0.176-0.141-0.06-0.61-0.219-0.769
						c-0.159-0.159-0.629-0.043-0.769-0.219c-0.141-0.176,0.077-0.607-0.043-0.799c-0.12-0.19-0.603-0.181-0.701-0.384
						c-0.098-0.202,0.211-0.574,0.136-0.788c-0.074-0.211-0.547-0.31-0.598-0.532c-0.049-0.218,0.334-0.512,0.309-0.738
						c-0.025-0.222-0.464-0.423-0.464-0.652s0.439-0.43,0.464-0.652c0.025-0.226-0.359-0.52-0.309-0.738
						c0.05-0.222,0.524-0.32,0.598-0.532c0.075-0.214-0.233-0.586-0.136-0.788c0.098-0.204,0.582-0.194,0.702-0.384
						c0.12-0.191-0.097-0.623,0.043-0.799c0.141-0.176,0.61-0.06,0.769-0.219c0.159-0.159,0.043-0.628,0.219-0.769
						c0.176-0.141,0.608,0.077,0.799-0.043c0.19-0.12,0.181-0.603,0.384-0.701c0.202-0.097,0.574,0.211,0.788,0.136
						c0.212-0.074,0.31-0.547,0.532-0.598c0.218-0.05,0.512,0.334,0.738,0.309c0.222-0.025,0.423-0.464,0.652-0.464
						s0.43,0.439,0.652,0.464c0.226,0.025,0.52-0.359,0.738-0.309c0.221,0.05,0.32,0.524,0.532,0.598
						c0.214,0.075,0.586-0.233,0.788-0.136c0.204,0.098,0.194,0.582,0.385,0.702c0.191,0.12,0.623-0.097,0.799,0.043
						c0.176,0.141,0.06,0.61,0.219,0.769c0.159,0.159,0.628,0.043,0.769,0.219c0.141,0.176-0.077,0.607,0.043,0.799
						c0.12,0.19,0.603,0.181,0.701,0.384c0.098,0.202-0.211,0.574-0.136,0.788c0.074,0.211,0.547,0.31,0.598,0.532
						c0.05,0.218-0.334,0.512-0.309,0.738C437.893,204.069,438.332,204.271,438.332,204.499z"/>
				</g>
				<path style="fill:#92E3A9;" d="M434.404,204.499c0,1.278-1.036,2.314-2.314,2.314c-1.278,0-2.314-1.036-2.314-2.314
					c0-1.278,1.036-2.314,2.314-2.314C433.368,202.185,434.404,203.221,434.404,204.499z"/>
			</g>
			<g>
				<g>
					<path style="fill:#FFFFFF;" d="M439.893,187.559c0,0.228-0.44,0.43-0.464,0.652c-0.025,0.226,0.358,0.52,0.309,0.738
						c-0.05,0.221-0.524,0.32-0.598,0.532c-0.075,0.214,0.233,0.586,0.136,0.788c-0.098,0.204-0.582,0.194-0.702,0.385
						c-0.12,0.191,0.097,0.623-0.043,0.799c-0.141,0.176-0.61,0.06-0.769,0.219c-0.159,0.159-0.043,0.628-0.219,0.769
						c-0.176,0.14-0.607-0.077-0.799,0.043c-0.19,0.12-0.18,0.603-0.384,0.701c-0.202,0.098-0.574-0.211-0.788-0.136
						c-0.211,0.074-0.31,0.547-0.531,0.598c-0.218,0.049-0.512-0.334-0.738-0.309c-0.222,0.025-0.423,0.464-0.651,0.464
						c-0.228,0-0.43-0.439-0.652-0.464c-0.226-0.025-0.52,0.358-0.738,0.309c-0.221-0.05-0.32-0.524-0.532-0.598
						c-0.214-0.075-0.586,0.233-0.788,0.136c-0.204-0.098-0.194-0.582-0.384-0.702c-0.191-0.12-0.623,0.097-0.799-0.043
						c-0.176-0.141-0.06-0.61-0.219-0.769c-0.159-0.159-0.628-0.043-0.769-0.219c-0.141-0.176,0.077-0.607-0.043-0.799
						c-0.12-0.19-0.603-0.18-0.701-0.384c-0.098-0.202,0.211-0.574,0.136-0.788c-0.074-0.212-0.547-0.31-0.598-0.532
						c-0.049-0.218,0.334-0.512,0.309-0.738c-0.025-0.222-0.464-0.423-0.464-0.652c0-0.228,0.439-0.43,0.464-0.652
						c0.025-0.226-0.359-0.52-0.309-0.738c0.05-0.221,0.524-0.32,0.598-0.532c0.075-0.214-0.233-0.586-0.136-0.788
						c0.098-0.204,0.582-0.194,0.702-0.385c0.12-0.191-0.097-0.623,0.043-0.799c0.141-0.176,0.61-0.06,0.769-0.219
						c0.159-0.159,0.043-0.628,0.219-0.769c0.176-0.14,0.607,0.077,0.799-0.043c0.19-0.12,0.18-0.603,0.384-0.701
						c0.202-0.098,0.574,0.211,0.788,0.136c0.212-0.074,0.31-0.547,0.532-0.598c0.218-0.05,0.512,0.334,0.738,0.309
						c0.222-0.025,0.423-0.464,0.652-0.464c0.228,0,0.43,0.44,0.652,0.464c0.226,0.025,0.52-0.358,0.738-0.309
						c0.221,0.05,0.32,0.524,0.532,0.598c0.214,0.075,0.586-0.233,0.788-0.136c0.204,0.098,0.194,0.582,0.384,0.702
						c0.191,0.12,0.623-0.097,0.799,0.043c0.176,0.141,0.06,0.61,0.219,0.769c0.159,0.159,0.629,0.043,0.769,0.219
						c0.14,0.176-0.077,0.607,0.043,0.799c0.12,0.19,0.603,0.18,0.701,0.384c0.098,0.202-0.211,0.574-0.136,0.788
						c0.074,0.211,0.547,0.31,0.598,0.532c0.05,0.218-0.334,0.512-0.309,0.738C439.454,187.129,439.893,187.331,439.893,187.559z"/>
					<path style="fill:none;stroke:#263238;stroke-linecap:round;stroke-linejoin:round;stroke-miterlimit:10;" d="M439.893,187.559
						c0,0.228-0.44,0.43-0.464,0.652c-0.025,0.226,0.358,0.52,0.309,0.738c-0.05,0.221-0.524,0.32-0.598,0.532
						c-0.075,0.214,0.233,0.586,0.136,0.788c-0.098,0.204-0.582,0.194-0.702,0.385c-0.12,0.191,0.097,0.623-0.043,0.799
						c-0.141,0.176-0.61,0.06-0.769,0.219c-0.159,0.159-0.043,0.628-0.219,0.769c-0.176,0.14-0.607-0.077-0.799,0.043
						c-0.19,0.12-0.18,0.603-0.384,0.701c-0.202,0.098-0.574-0.211-0.788-0.136c-0.211,0.074-0.31,0.547-0.531,0.598
						c-0.218,0.049-0.512-0.334-0.738-0.309c-0.222,0.025-0.423,0.464-0.651,0.464c-0.228,0-0.43-0.439-0.652-0.464
						c-0.226-0.025-0.52,0.358-0.738,0.309c-0.221-0.05-0.32-0.524-0.532-0.598c-0.214-0.075-0.586,0.233-0.788,0.136
						c-0.204-0.098-0.194-0.582-0.384-0.702c-0.191-0.12-0.623,0.097-0.799-0.043c-0.176-0.141-0.06-0.61-0.219-0.769
						c-0.159-0.159-0.628-0.043-0.769-0.219c-0.141-0.176,0.077-0.607-0.043-0.799c-0.12-0.19-0.603-0.18-0.701-0.384
						c-0.098-0.202,0.211-0.574,0.136-0.788c-0.074-0.212-0.547-0.31-0.598-0.532c-0.049-0.218,0.334-0.512,0.309-0.738
						c-0.025-0.222-0.464-0.423-0.464-0.652c0-0.228,0.439-0.43,0.464-0.652c0.025-0.226-0.359-0.52-0.309-0.738
						c0.05-0.221,0.524-0.32,0.598-0.532c0.075-0.214-0.233-0.586-0.136-0.788c0.098-0.204,0.582-0.194,0.702-0.385
						c0.12-0.191-0.097-0.623,0.043-0.799c0.141-0.176,0.61-0.06,0.769-0.219c0.159-0.159,0.043-0.628,0.219-0.769
						c0.176-0.14,0.607,0.077,0.799-0.043c0.19-0.12,0.18-0.603,0.384-0.701c0.202-0.098,0.574,0.211,0.788,0.136
						c0.212-0.074,0.31-0.547,0.532-0.598c0.218-0.05,0.512,0.334,0.738,0.309c0.222-0.025,0.423-0.464,0.652-0.464
						c0.228,0,0.43,0.44,0.652,0.464c0.226,0.025,0.52-0.358,0.738-0.309c0.221,0.05,0.32,0.524,0.532,0.598
						c0.214,0.075,0.586-0.233,0.788-0.136c0.204,0.098,0.194,0.582,0.384,0.702c0.191,0.12,0.623-0.097,0.799,0.043
						c0.176,0.141,0.06,0.61,0.219,0.769c0.159,0.159,0.629,0.043,0.769,0.219c0.14,0.176-0.077,0.607,0.043,0.799
						c0.12,0.19,0.603,0.18,0.701,0.384c0.098,0.202-0.211,0.574-0.136,0.788c0.074,0.211,0.547,0.31,0.598,0.532
						c0.05,0.218-0.334,0.512-0.309,0.738C439.454,187.129,439.893,187.331,439.893,187.559z"/>
				</g>
				<path style="fill:#92E3A9;" d="M435.965,187.559c0,1.278-1.036,2.314-2.314,2.314c-1.278,0-2.314-1.036-2.314-2.314
					c0-1.278,1.036-2.314,2.314-2.314C434.929,185.245,435.965,186.281,435.965,187.559z"/>
			</g>
			<g>
				<g>
					<path style="fill:#FFFFFF;" d="M466.081,205.558c0,0.228-0.439,0.43-0.464,0.652c-0.025,0.226,0.359,0.52,0.309,0.738
						c-0.05,0.221-0.524,0.32-0.598,0.532c-0.075,0.214,0.233,0.586,0.136,0.788c-0.098,0.204-0.582,0.194-0.702,0.384
						c-0.121,0.191,0.097,0.623-0.043,0.799c-0.141,0.176-0.61,0.06-0.769,0.219c-0.159,0.159-0.043,0.628-0.219,0.769
						c-0.176,0.141-0.608-0.077-0.799,0.043c-0.19,0.12-0.18,0.603-0.384,0.701c-0.202,0.097-0.574-0.211-0.788-0.136
						c-0.212,0.074-0.31,0.547-0.532,0.598c-0.218,0.049-0.512-0.334-0.738-0.309c-0.222,0.025-0.423,0.464-0.652,0.464
						c-0.228,0-0.43-0.439-0.652-0.464c-0.226-0.025-0.52,0.359-0.738,0.309c-0.222-0.05-0.32-0.524-0.532-0.598
						c-0.214-0.075-0.586,0.233-0.788,0.136c-0.204-0.098-0.194-0.582-0.384-0.702c-0.191-0.12-0.623,0.097-0.799-0.043
						c-0.176-0.141-0.06-0.61-0.219-0.769c-0.159-0.159-0.628-0.043-0.769-0.219c-0.141-0.176,0.077-0.607-0.043-0.799
						c-0.12-0.19-0.603-0.181-0.701-0.384c-0.098-0.202,0.211-0.574,0.136-0.788c-0.074-0.211-0.547-0.31-0.598-0.532
						c-0.05-0.218,0.334-0.512,0.309-0.738c-0.025-0.222-0.464-0.423-0.464-0.652s0.44-0.43,0.464-0.652
						c0.025-0.226-0.358-0.52-0.309-0.738c0.05-0.222,0.524-0.32,0.598-0.532c0.075-0.214-0.233-0.586-0.136-0.788
						c0.098-0.204,0.582-0.194,0.702-0.384c0.12-0.191-0.097-0.623,0.043-0.799c0.141-0.176,0.61-0.06,0.769-0.219
						c0.159-0.159,0.043-0.629,0.219-0.769c0.176-0.141,0.608,0.077,0.799-0.043c0.19-0.12,0.181-0.603,0.384-0.701
						c0.202-0.098,0.574,0.211,0.788,0.136c0.211-0.074,0.31-0.547,0.531-0.598c0.218-0.05,0.512,0.334,0.738,0.309
						c0.222-0.025,0.423-0.464,0.652-0.464c0.228,0,0.43,0.439,0.652,0.464c0.227,0.025,0.52-0.359,0.738-0.309
						c0.222,0.05,0.32,0.524,0.532,0.598c0.214,0.075,0.586-0.233,0.788-0.136c0.204,0.098,0.194,0.582,0.384,0.702
						c0.191,0.12,0.623-0.097,0.799,0.043c0.176,0.141,0.06,0.61,0.219,0.769c0.159,0.159,0.628,0.043,0.769,0.219
						c0.141,0.176-0.077,0.607,0.043,0.799c0.12,0.19,0.603,0.181,0.701,0.384c0.098,0.202-0.211,0.574-0.136,0.788
						c0.074,0.211,0.547,0.31,0.598,0.532c0.049,0.218-0.334,0.512-0.309,0.738C465.642,205.128,466.081,205.33,466.081,205.558z"/>
					<path style="fill:none;stroke:#263238;stroke-linecap:round;stroke-linejoin:round;stroke-miterlimit:10;" d="M466.081,205.558
						c0,0.228-0.439,0.43-0.464,0.652c-0.025,0.226,0.359,0.52,0.309,0.738c-0.05,0.221-0.524,0.32-0.598,0.532
						c-0.075,0.214,0.233,0.586,0.136,0.788c-0.098,0.204-0.582,0.194-0.702,0.384c-0.121,0.191,0.097,0.623-0.043,0.799
						c-0.141,0.176-0.61,0.06-0.769,0.219c-0.159,0.159-0.043,0.628-0.219,0.769c-0.176,0.141-0.608-0.077-0.799,0.043
						c-0.19,0.12-0.18,0.603-0.384,0.701c-0.202,0.097-0.574-0.211-0.788-0.136c-0.212,0.074-0.31,0.547-0.532,0.598
						c-0.218,0.049-0.512-0.334-0.738-0.309c-0.222,0.025-0.423,0.464-0.652,0.464c-0.228,0-0.43-0.439-0.652-0.464
						c-0.226-0.025-0.52,0.359-0.738,0.309c-0.222-0.05-0.32-0.524-0.532-0.598c-0.214-0.075-0.586,0.233-0.788,0.136
						c-0.204-0.098-0.194-0.582-0.384-0.702c-0.191-0.12-0.623,0.097-0.799-0.043c-0.176-0.141-0.06-0.61-0.219-0.769
						c-0.159-0.159-0.628-0.043-0.769-0.219c-0.141-0.176,0.077-0.607-0.043-0.799c-0.12-0.19-0.603-0.181-0.701-0.384
						c-0.098-0.202,0.211-0.574,0.136-0.788c-0.074-0.211-0.547-0.31-0.598-0.532c-0.05-0.218,0.334-0.512,0.309-0.738
						c-0.025-0.222-0.464-0.423-0.464-0.652s0.44-0.43,0.464-0.652c0.025-0.226-0.358-0.52-0.309-0.738
						c0.05-0.222,0.524-0.32,0.598-0.532c0.075-0.214-0.233-0.586-0.136-0.788c0.098-0.204,0.582-0.194,0.702-0.384
						c0.12-0.191-0.097-0.623,0.043-0.799c0.141-0.176,0.61-0.06,0.769-0.219c0.159-0.159,0.043-0.629,0.219-0.769
						c0.176-0.141,0.608,0.077,0.799-0.043c0.19-0.12,0.181-0.603,0.384-0.701c0.202-0.098,0.574,0.211,0.788,0.136
						c0.211-0.074,0.31-0.547,0.531-0.598c0.218-0.05,0.512,0.334,0.738,0.309c0.222-0.025,0.423-0.464,0.652-0.464
						c0.228,0,0.43,0.439,0.652,0.464c0.227,0.025,0.52-0.359,0.738-0.309c0.222,0.05,0.32,0.524,0.532,0.598
						c0.214,0.075,0.586-0.233,0.788-0.136c0.204,0.098,0.194,0.582,0.384,0.702c0.191,0.12,0.623-0.097,0.799,0.043
						c0.176,0.141,0.06,0.61,0.219,0.769c0.159,0.159,0.628,0.043,0.769,0.219c0.141,0.176-0.077,0.607,0.043,0.799
						c0.12,0.19,0.603,0.181,0.701,0.384c0.098,0.202-0.211,0.574-0.136,0.788c0.074,0.211,0.547,0.31,0.598,0.532
						c0.049,0.218-0.334,0.512-0.309,0.738C465.642,205.128,466.081,205.33,466.081,205.558z"/>
				</g>
				<path style="fill:#92E3A9;" d="M462.153,205.558c0,1.278-1.036,2.314-2.314,2.314c-1.278,0-2.314-1.036-2.314-2.314
					c0-1.278,1.036-2.314,2.314-2.314C461.116,203.244,462.153,204.28,462.153,205.558z"/>
			</g>
			<g>
				<g>
					<path style="fill:#FFFFFF;" d="M444.475,226.316c0,0.228-0.44,0.43-0.464,0.652c-0.025,0.226,0.359,0.52,0.309,0.738
						c-0.05,0.221-0.524,0.32-0.598,0.532c-0.075,0.214,0.233,0.586,0.136,0.788c-0.098,0.204-0.582,0.194-0.702,0.384
						c-0.12,0.191,0.097,0.623-0.043,0.799c-0.141,0.176-0.61,0.06-0.769,0.219c-0.159,0.159-0.043,0.629-0.219,0.769
						c-0.176,0.14-0.608-0.077-0.799,0.043c-0.19,0.12-0.181,0.603-0.384,0.701c-0.202,0.098-0.574-0.211-0.788-0.136
						c-0.211,0.074-0.31,0.547-0.531,0.598c-0.218,0.049-0.512-0.334-0.738-0.309c-0.222,0.025-0.423,0.464-0.652,0.464
						s-0.43-0.439-0.652-0.464c-0.226-0.025-0.52,0.359-0.738,0.309c-0.222-0.05-0.32-0.524-0.532-0.598
						c-0.214-0.075-0.586,0.233-0.788,0.136c-0.204-0.098-0.194-0.582-0.384-0.702c-0.191-0.12-0.623,0.097-0.799-0.043
						c-0.176-0.141-0.06-0.61-0.219-0.769c-0.159-0.159-0.628-0.043-0.769-0.219c-0.141-0.176,0.077-0.607-0.043-0.799
						c-0.12-0.19-0.603-0.18-0.701-0.384c-0.098-0.202,0.211-0.574,0.136-0.788c-0.074-0.212-0.547-0.31-0.598-0.532
						c-0.05-0.218,0.334-0.512,0.309-0.738c-0.025-0.222-0.464-0.423-0.464-0.652s0.44-0.43,0.464-0.652
						c0.025-0.226-0.358-0.52-0.309-0.738c0.05-0.221,0.524-0.32,0.598-0.532c0.075-0.214-0.233-0.586-0.136-0.788
						c0.098-0.204,0.582-0.194,0.702-0.384c0.12-0.191-0.097-0.623,0.043-0.799c0.141-0.176,0.61-0.06,0.769-0.219
						c0.159-0.159,0.043-0.629,0.219-0.769c0.176-0.14,0.607,0.077,0.799-0.043c0.19-0.12,0.18-0.603,0.384-0.701
						c0.202-0.098,0.574,0.211,0.788,0.136c0.211-0.074,0.31-0.547,0.531-0.598c0.218-0.05,0.512,0.334,0.738,0.309
						c0.222-0.025,0.423-0.464,0.651-0.464s0.43,0.439,0.652,0.464c0.226,0.025,0.52-0.358,0.738-0.309
						c0.222,0.05,0.32,0.524,0.532,0.598c0.214,0.075,0.586-0.233,0.788-0.136c0.204,0.098,0.194,0.582,0.384,0.702
						c0.191,0.12,0.623-0.097,0.799,0.043c0.176,0.141,0.06,0.61,0.219,0.769c0.159,0.159,0.628,0.043,0.769,0.219
						c0.141,0.176-0.077,0.607,0.043,0.799c0.12,0.19,0.603,0.18,0.702,0.384c0.097,0.202-0.211,0.574-0.136,0.788
						c0.074,0.211,0.547,0.31,0.598,0.532c0.049,0.218-0.334,0.512-0.309,0.738C444.036,225.887,444.475,226.088,444.475,226.316z"
						/>
					<path style="fill:none;stroke:#263238;stroke-linecap:round;stroke-linejoin:round;stroke-miterlimit:10;" d="M444.475,226.316
						c0,0.228-0.44,0.43-0.464,0.652c-0.025,0.226,0.359,0.52,0.309,0.738c-0.05,0.221-0.524,0.32-0.598,0.532
						c-0.075,0.214,0.233,0.586,0.136,0.788c-0.098,0.204-0.582,0.194-0.702,0.384c-0.12,0.191,0.097,0.623-0.043,0.799
						c-0.141,0.176-0.61,0.06-0.769,0.219c-0.159,0.159-0.043,0.629-0.219,0.769c-0.176,0.14-0.608-0.077-0.799,0.043
						c-0.19,0.12-0.181,0.603-0.384,0.701c-0.202,0.098-0.574-0.211-0.788-0.136c-0.211,0.074-0.31,0.547-0.531,0.598
						c-0.218,0.049-0.512-0.334-0.738-0.309c-0.222,0.025-0.423,0.464-0.652,0.464s-0.43-0.439-0.652-0.464
						c-0.226-0.025-0.52,0.359-0.738,0.309c-0.222-0.05-0.32-0.524-0.532-0.598c-0.214-0.075-0.586,0.233-0.788,0.136
						c-0.204-0.098-0.194-0.582-0.384-0.702c-0.191-0.12-0.623,0.097-0.799-0.043c-0.176-0.141-0.06-0.61-0.219-0.769
						c-0.159-0.159-0.628-0.043-0.769-0.219c-0.141-0.176,0.077-0.607-0.043-0.799c-0.12-0.19-0.603-0.18-0.701-0.384
						c-0.098-0.202,0.211-0.574,0.136-0.788c-0.074-0.212-0.547-0.31-0.598-0.532c-0.05-0.218,0.334-0.512,0.309-0.738
						c-0.025-0.222-0.464-0.423-0.464-0.652s0.44-0.43,0.464-0.652c0.025-0.226-0.358-0.52-0.309-0.738
						c0.05-0.221,0.524-0.32,0.598-0.532c0.075-0.214-0.233-0.586-0.136-0.788c0.098-0.204,0.582-0.194,0.702-0.384
						c0.12-0.191-0.097-0.623,0.043-0.799c0.141-0.176,0.61-0.06,0.769-0.219c0.159-0.159,0.043-0.629,0.219-0.769
						c0.176-0.14,0.607,0.077,0.799-0.043c0.19-0.12,0.18-0.603,0.384-0.701c0.202-0.098,0.574,0.211,0.788,0.136
						c0.211-0.074,0.31-0.547,0.531-0.598c0.218-0.05,0.512,0.334,0.738,0.309c0.222-0.025,0.423-0.464,0.651-0.464
						s0.43,0.439,0.652,0.464c0.226,0.025,0.52-0.358,0.738-0.309c0.222,0.05,0.32,0.524,0.532,0.598
						c0.214,0.075,0.586-0.233,0.788-0.136c0.204,0.098,0.194,0.582,0.384,0.702c0.191,0.12,0.623-0.097,0.799,0.043
						c0.176,0.141,0.06,0.61,0.219,0.769c0.159,0.159,0.628,0.043,0.769,0.219c0.141,0.176-0.077,0.607,0.043,0.799
						c0.12,0.19,0.603,0.18,0.702,0.384c0.097,0.202-0.211,0.574-0.136,0.788c0.074,0.211,0.547,0.31,0.598,0.532
						c0.049,0.218-0.334,0.512-0.309,0.738C444.036,225.887,444.475,226.088,444.475,226.316z"/>
				</g>
				<path style="fill:#92E3A9;" d="M440.547,226.316c0,1.278-1.036,2.314-2.314,2.314s-2.314-1.036-2.314-2.314
					c0-1.278,1.036-2.314,2.314-2.314S440.547,225.038,440.547,226.316z"/>
			</g>
		</g>
		<g>
			<path style="fill:#FFFFFF;stroke:#263238;stroke-linecap:round;stroke-linejoin:round;stroke-miterlimit:10;" d="
				M432.385,265.668h14.395c6.71-4.483,11.423-15.042,11.423-27.356c0-2.79-0.247-5.486-0.699-8.046h-35.842
				c-0.452,2.56-0.699,5.256-0.699,8.046C420.962,250.626,425.675,261.185,432.385,265.668z"/>
		</g>
	</g>
</g>
<g id="Character_3">
	<g>
		<g>
			<path style="fill:#FFFFFF;stroke:#263238;stroke-linecap:round;stroke-linejoin:round;stroke-miterlimit:10;" d="
				M427.508,444.762h-3.455c-0.472,0-0.861-0.369-0.885-0.84l-2.738-28.539h10.702l-2.738,28.539
				C428.368,444.393,427.979,444.762,427.508,444.762z"/>
			<path style="fill:#FFFFFF;stroke:#263238;stroke-linecap:round;stroke-linejoin:round;stroke-miterlimit:10;" d="
				M460.841,444.762h-3.455c-0.471,0-0.86-0.369-0.885-0.84l-2.738-28.539h10.702l-2.738,28.539
				C461.701,444.393,461.313,444.762,460.841,444.762z"/>
			<path style="fill:#FFFFFF;stroke:#263238;stroke-linecap:round;stroke-linejoin:round;stroke-miterlimit:10;" d="
				M406.508,444.762h-3.455c-0.472,0-0.861-0.369-0.885-0.84l-2.738-28.539h10.702l-2.738,28.539
				C407.368,444.393,406.979,444.762,406.508,444.762z"/>
			<path style="fill:#FFFFFF;stroke:#263238;stroke-linecap:round;stroke-linejoin:round;stroke-miterlimit:10;" d="
				M371.841,444.762h-3.455c-0.471,0-0.86-0.369-0.885-0.84l-2.738-28.539h10.702l-2.738,28.539
				C372.701,444.393,372.313,444.762,371.841,444.762z"/>
			<path style="fill:#525252;stroke:#263238;stroke-linecap:round;stroke-linejoin:round;stroke-miterlimit:10;" d="
				M422.298,416.554h-68.523c0,0-7.008-23.403-12.459-45.984c-5.451-22.581-11.68-51.003-5.061-56.843
				c6.619-5.84,24.139,4.283,37.376,7.008c13.237,2.725,15.963-0.389,24.917-9.733c8.955-9.344,16.741-24.528,31.925-34.261
				c15.184-9.733,26.475-11.291,36.986-4.672c0,0,10.512,8.955,11.291,24.139c0.779,15.184-3.504,34.261-8.955,44.773
				C464.346,351.493,422.298,416.554,422.298,416.554z"/>
		</g>
		<g>
			<path style="fill:none;stroke:#263238;stroke-linecap:round;stroke-linejoin:round;stroke-miterlimit:10;" d="M431.926,373.717
				h-74c0,0-13.333-13.333-15.333-45.333"/>
			<path style="fill:#757575;stroke:#263238;stroke-linecap:round;stroke-linejoin:round;stroke-miterlimit:10;" d="
				M380.194,244.311l8.38,5.121c0,0-5.82,31.891-4.423,48.651c1.397,16.76,8.38,32.822,8.38,32.822h-22.58
				c0,0-8.38-20.019-12.105-33.986c-3.724-13.967,2.793-46.789,2.793-46.789L380.194,244.311z"/>
			<g>
				<path style="fill:#FFFFFF;stroke:#263238;stroke-linecap:round;stroke-linejoin:round;stroke-miterlimit:10;" d="
					M321.833,299.428l-5.819-4.656c0,0-2.793-8.613-4.888-11.173c-2.095-2.561-5.587-2.561-9.544-3.026
					c-3.957-0.465-6.518-1.862-6.751-0.233c-0.233,1.629,0.698,2.793,1.862,3.259c1.164,0.465,4.656,2.095,4.656,2.095
					s-1.63,1.164-2.793,1.164c-1.164,0-5.262-3.511-7.823-4.442c-2.56-0.931-4.423-2.328-4.19-1.164
					c0.233,1.164,5.96,12.124,7.59,13.986c1.63,1.862,2.793,1.397,6.751,2.793c3.957,1.397,5.121,1.862,5.121,1.862l3.957,1.164
					l9.078,8.613L321.833,299.428z"/>
				<path style="fill:#FFFFFF;stroke:#263238;stroke-linecap:round;stroke-linejoin:round;stroke-miterlimit:10;" d="
					M292.503,294.307c0,0-7.083-7.837-7.037-9.944c0.046-2.108-0.172-11.06,0.782-11.168c0.954-0.108,2.338,0.076,2.047,4.03
					c-0.291,3.953,1.836,5.834,2.205,6.588c0.369,0.754-0.092,5.606-0.092,5.606L292.503,294.307z"/>
				<path style="fill:#FFFFFF;stroke:#263238;stroke-linecap:round;stroke-linejoin:round;stroke-miterlimit:10;" d="
					M291.086,292.694c0,0-1.598-4.206-2.068-6.26c-0.47-2.055-2.866-10.684-1.968-11.021c0.898-0.338,2.286-0.497,2.969,3.408
					c0.683,3.905,0.074,9.301,0.616,9.942c0.542,0.641,2.578,2.047,2.578,2.047L291.086,292.694z"/>
				<path style="fill:#FFFFFF;stroke:#263238;stroke-linecap:round;stroke-linejoin:round;stroke-miterlimit:10;" d="
					M292.735,295.238c0,0-3.419-4.675-3.651-6.77c-0.233-2.095-0.118-10.662,0.813-10.895c0.931-0.233,1.718,2.71,1.951,6.667
					c0.233,3.957,0.422,6.342,0.887,7.041c0.466,0.698,2.328,2.328,2.328,2.328L292.735,295.238z"/>
				<path style="fill:#FFFFFF;stroke:#263238;stroke-linecap:round;stroke-linejoin:round;stroke-miterlimit:10;" d="
					M307.866,299.894c0,0-11.173-1.629-13.268-2.561c-2.095-0.931-3.259-4.19-3.259-5.121c0-0.931-0.931-10.941-0.931-11.639
					c0-0.698,0.698-1.862,1.862-1.164c1.164,0.698,2.095,7.682,2.095,7.682l6.983,5.819c0,0,5.819,0.466,7.216,2.095"/>
			</g>
			<path style="fill:#92E3A9;stroke:#263238;stroke-linecap:round;stroke-linejoin:round;stroke-miterlimit:10;" d="
				M355.752,254.553c0,0-3.725,0.698-4.656,2.793c-0.931,2.095-6.983,49.582-6.983,49.582l-25.373-11.406l-6.518,13.967
				c0,0,40.038,20.252,43.297,20.95c3.259,0.698,11.173,1.63,14.432-0.931c3.259-2.561-9.108-13.272-11.359-23.125
				c-5.333-23.333-4.667-39.333-4.667-39.333S360.408,251.76,355.752,254.553z"/>
			<path style="fill:#92E3A9;stroke:#263238;stroke-linecap:round;stroke-linejoin:round;stroke-miterlimit:10;" d="
				M350.631,281.788c0,0,5.819,23.278,8.38,29.563c2.561,6.285,7.682,16.76,7.682,16.76l5.587,0.931c0,0-11.639-25.14-13.734-35.15
				c-2.095-10.01,2.561-35.383,2.793-36.314c0.233-0.931-1.629-6.751-5.121-5.587"/>
			<polygon style="fill:#FFFFFF;stroke:#263238;stroke-linecap:round;stroke-linejoin:round;stroke-miterlimit:10;" points="
				361.106,275.271 367.857,292.263 375.073,274.107 366.46,267.356 			"/>
			<g>
				<polygon style="fill:#FFFFFF;stroke:#263238;stroke-linecap:round;stroke-linejoin:round;stroke-miterlimit:10;" points="
					359.477,261.536 356.916,281.323 367.857,272.943 				"/>
				<g>
					<g>
						<path style="fill:#FFFFFF;stroke:#263238;stroke-linecap:round;stroke-linejoin:round;stroke-miterlimit:10;" d="
							M344.579,210.558c0,0-5.121,12.105-4.888,14.2c0.233,2.095,1.164,5.587,0.233,7.915c-0.931,2.328-6.285,5.121-5.354,7.449
							s3.957,3.492,3.957,3.492s0,10.941,2.328,13.734c2.328,2.793,14.665,0,14.665,0l11.173,16.295l16.062-29.098l-2.328-4.888
							c0,0,4.19-18.157-4.656-26.304C366.925,205.204,348.07,207.066,344.579,210.558z"/>
						<path style="fill:#FFFFFF;stroke:#263238;stroke-linecap:round;stroke-linejoin:round;stroke-miterlimit:10;" d="
							M367.158,238.724c0,0,0.233,8.147-4.423,11.173"/>
						<path style="fill:#263238;" d="M345.742,231.624c0,1.093-0.417,1.979-0.931,1.979c-0.514,0-0.931-0.886-0.931-1.979
							c0-1.093,0.417-1.979,0.931-1.979C345.326,229.646,345.742,230.531,345.742,231.624z"/>
						<path style="fill:none;stroke:#263238;stroke-linecap:round;stroke-linejoin:round;stroke-miterlimit:10;" d="
							M342.949,226.154c0,0,3.725-3.957,6.052,0.466"/>
					</g>
					<path style="fill:#263238;stroke:#263238;stroke-linecap:round;stroke-linejoin:round;stroke-miterlimit:10;" d="
						M348.07,204.04c0,0-8.846,2.793-6.052,6.052c2.793,3.259,3.957,3.026,10.475,2.095c6.518-0.931,11.639,2.328,7.914,4.888
						c-3.724,2.561-7.216,3.725-5.121,6.052c2.095,2.328,5.587,3.957,5.121,5.819c-0.466,1.862-0.233,3.492,1.164,3.492
						s2.328-1.63,3.492-3.492s5.121-4.888,6.285,1.164c1.164,6.052-1.862,8.613-3.026,8.613c-1.164,0-1.164,0-1.164,0
						s3.957,4.656,7.216,3.724c3.259-0.931,6.052-2.793,6.052-2.793s6.518-8.147,5.819-17.226
						c-0.698-9.079-4.888-14.898-14.898-18.39C361.339,200.548,348.07,204.04,348.07,204.04z"/>
				</g>
				<path style="fill:#FFFFFF;stroke:#263238;stroke-linecap:round;stroke-linejoin:round;stroke-miterlimit:10;" d="
					M381.823,242.914L366.46,272.71l9.777,10.242c0,0,8.38-22.58,9.311-28.166c0.931-5.587,1.63-9.544,1.63-9.544L381.823,242.914z"
					/>
			</g>
			<path style="fill:#263238;stroke:#263238;stroke-linecap:round;stroke-linejoin:round;stroke-miterlimit:10;" d="M372.926,327.05
				c0,0-45-2.333-50.667,0c-5.667,2.333-7,8.333-6.333,14.333c0.667,6,4,41.333,5.333,51.333c1.333,10,2,22.333,1,24.667
				c-1,2.333-4,6.333-3,8.667c1,2.333,2.667,3.333,2.667,4.333s-1.333,2.667-1.333,2.667s-12.333,5.333-16.667,7
				c-4.333,1.667-4.667,3-3.667,3.667c1,0.667,21.667,0,25.333,0c3.667,0,10.667-2.333,10.667-2.333v1.667h9c0,0,0-3,0-6.333
				c0-3.333-0.333-6-0.333-6s1.667-4.333,1.333-6c-0.333-1.667-2.333-5.333-3-8.667c-0.667-3.333,0-8,0.333-11.667
				c0.333-3.667,0-6-0.333-8c-0.333-2,2-38.333,2-38.333s26.333,8,29,8.333c2.667,0.333,24.333,8.333,33.333,6
				c9-2.333-3.667-30.667-13.667-40.333C383.926,322.384,372.926,327.05,372.926,327.05z"/>
			<path style="fill:#263238;stroke:#263238;stroke-linecap:round;stroke-linejoin:round;stroke-miterlimit:10;" d="
				M391.259,323.717c0,0-29.667,2.333-33,5.667c-3.333,3.333-2.333,10-2.333,14.333c0,4.333,4,62,4.333,65.333
				c0.333,3.333-3.333,6.667-2,9c1.333,2.333,2,5,2,6s-9,8.333-12.667,10.333c-3.667,2-14,4.333-15.667,6
				c-1.667,1.667-1.333,3,1.667,4s28,0,28,0s3.667,0,5-1c1.333-1,2.333-1.333,2.333-1.333l0.333,2.229h13
				c0,0,1.333-7.562,1.333-10.896c0-3.333-1-8.333-1-8.333s2-3,1.667-6c-0.333-3-2.667-4.333-2.667-6.333s2-8,1.667-11.667
				c-0.333-3.667-0.667-8-0.667-8l3-29.333c0,0,20,11,29.667,10c9.667-1,12.333-2.333,15-7c2.667-4.667,2.667-24.333-1.667-32
				C424.259,327.05,400.259,320.05,391.259,323.717z"/>
			<path style="fill:#92E3A9;stroke:#263238;stroke-linecap:round;stroke-linejoin:round;stroke-miterlimit:10;" d="
				M387.177,245.242c0,0-6.983,17.459-7.682,27.934c-0.698,10.475,0.233,34.917,2.793,41.9c2.561,6.983,3.724,11.406,3.724,11.406
				s23.278,3.492,26.304,4.656c3.026,1.164,9.311,10.242,10.475,17.924c0.336,2.214,0.574,4.602,0.744,6.88
				c0.389,5.217-0.134,10.437-1.169,15.565c-0.193,0.957-0.234,1.752,0.057,2.043c0.931,0.931,13.403-4.702,17.593-19.134
				c4.19-14.432,2.095-31.425-1.629-39.34c-3.725-7.914-18.157-55.169-24.442-61.454
				C407.662,247.337,387.177,245.242,387.177,245.242z"/>
			<path style="fill:#FFFFFF;stroke:#263238;stroke-linecap:round;stroke-linejoin:round;stroke-miterlimit:10;" d="
				M350.864,303.204l-7.449-3.957c0,0-5.121-4.656-6.285-6.052c-1.164-1.397-4.423-1.862-6.983-2.095
				c-2.561-0.233-7.449-1.397-7.915-0.233c-0.465,1.164,0.233,1.862,1.397,2.328c1.164,0.466,5.587,1.397,6.052,2.095
				c0.466,0.698,0.931,1.164-0.466,1.862c-1.397,0.698-7.682,0.931-8.38,0.931c-0.698,0-8.38-3.259-10.01-3.026
				c-1.629,0.233-0.466,1.63,0.931,2.793c1.397,1.164,7.216,6.751,8.147,8.38c0.931,1.629,6.983,4.19,9.777,4.656
				s13.501,0.698,13.501,0.698l6.518,1.63L350.864,303.204z"/>
			<g>
				<path style="fill:#92E3A9;stroke:#263238;stroke-linecap:round;stroke-linejoin:round;stroke-miterlimit:10;" d="
					M396.721,258.045c0,0-6.751,6.518-6.983,13.501c-0.233,6.983,0,9.777,0,10.941c0,1.164,0.465,24.908,0.465,24.908L349.7,302.04
					l-2.793,17.924L403.705,333c0,0,4.656,0.698,6.983-2.793c2.328-3.492,8.147-52.841,8.147-52.841"/>
				<path style="fill:none;stroke:#263238;stroke-linecap:round;stroke-linejoin:round;stroke-miterlimit:10;" d="M401.12,310.469
					c0.668,0.516,1.305,1.116,1.887,1.814"/>
				<path style="fill:none;stroke:#263238;stroke-linecap:round;stroke-linejoin:round;stroke-miterlimit:10;" d="M390.203,307.394
					c0,0,4.346-0.372,8.503,1.603"/>
				<path style="fill:none;stroke:#263238;stroke-linecap:round;stroke-linejoin:round;stroke-miterlimit:10;" d="M394.394,309.722
					c0,0,5.82,1.63,7.216,5.587"/>
			</g>
		</g>
		<path style="fill:#263238;stroke:#263238;stroke-linecap:round;stroke-linejoin:round;stroke-miterlimit:10;" d="M422.298,416.554
			c0,0,1.168-41.701,11.68-68.954c10.512-27.253,16.741-30.757,21.024-29.589c4.283,1.168,10.512,8.565,14.405,3.504
			c3.893-5.061,9.733-19.077,7.397-31.536c-2.336-12.459-7.008-14.795-9.344-17.909c-2.336-3.115,10.123,4.283,15.573,12.459
			c5.451,8.176,5.451,28.032,2.336,48.667c-3.115,20.635-10.901,79.077-13.627,81.413c-2.725,2.336-9.344,2.336-9.344,2.336h-35.819
			L422.298,416.554z"/>
	</g>
</g>
<g id="Character_2">
	<g>
		<path style="fill:#92E3A9;stroke:#263238;stroke-linecap:round;stroke-linejoin:round;stroke-miterlimit:10;" d="M228.926,279.854
			c0,0,8.75,44.25,7.75,51.5s-23.5,20.25-35.5,20.5s-21-2.75-22.75-7.75s2-28.75,2-28.75s-6.5-47.5-5.75-49.75s3-3.5,7.25-3.75
			s20.75-2.5,20.75-2.5l24.25,2"/>
		<path style="fill:#FFFFFF;stroke:#263238;stroke-linecap:round;stroke-linejoin:round;stroke-miterlimit:10;" d="M219.718,209.294
			c0,0,4.862,7.872,5.557,10.419c0.695,2.547,2.315,5.788,4.167,6.251c1.852,0.463,3.241,0.926,2.315,3.241
			c-0.926,2.315-3.473,3.936-3.473,3.936s-0.232,11.576-0.695,12.965c-0.463,1.389-12.502,1.852-12.502,1.852l-1.852,29.635
			l-22.458-17.596l4.167-50.24C194.945,209.757,207.679,200.496,219.718,209.294z"/>
		<g>
			<path style="fill:#263238;" d="M223.858,224.801c0.261,1.121,0.018,2.135-0.542,2.266c-0.56,0.13-1.226-0.672-1.487-1.793
				c-0.261-1.121-0.019-2.135,0.542-2.266C222.931,222.877,223.597,223.68,223.858,224.801z"/>
			<path style="fill:none;stroke:#263238;stroke-linecap:round;stroke-linejoin:round;stroke-miterlimit:10;" d="M219.255,223.185
				c0,0,2.084-2.315,5.093-1.621"/>
		</g>
		<path style="fill:#263238;stroke:#263238;stroke-linecap:round;stroke-linejoin:round;stroke-miterlimit:10;" d="M221.57,205.589
			c0,0-3.241,10.882-6.02,20.605c-2.778,9.724-4.399,13.66-3.936,17.596c0.463,3.936,3.936,20.374,3.936,20.374
			s-7.177,2.315-18.29,0.926c-11.113-1.389-20.142-6.483-20.142-6.483s1.158-11.113,1.852-21.763
			c0.695-10.65,3.01-26.625,8.103-30.792C192.167,201.885,214.393,200.033,221.57,205.589z"/>
		<path style="fill:#FFFFFF;stroke:#263238;stroke-linecap:round;stroke-linejoin:round;stroke-miterlimit:10;" d="M214.926,300.854
			c0,0-14-3.25-17.75-4s-15.5,6.5-18,8.5s-3,4.25,2.5,3.75s23.25-4.25,23.25-4.25l10.75,2L214.926,300.854z"/>
		<path style="fill:#FFFFFF;stroke:#263238;stroke-linecap:round;stroke-linejoin:round;stroke-miterlimit:10;" d="M206.176,298.104
			c0,0,11.75-4,14.25-4s12.75,3.5,12.75,3.5l-7,1.5h-6.25l-13,10.25l-3.5-10.25L206.176,298.104z"/>
		<path style="fill:#92E3A9;stroke:#263238;stroke-linecap:round;stroke-linejoin:round;stroke-miterlimit:10;" d="M188.176,262.354
			c0,0-14.5-1.75-18-1s-5.5,6.75-5.5,8.75s-4,53.5-4.25,57.5s3.75,7.25,7.25,7.25s44.75-18.5,44.75-18.5l-6.25-18.25l-25,8.75
			l2-32.25"/>
		<path style="fill:#92E3A9;stroke:#263238;stroke-linecap:round;stroke-linejoin:round;stroke-miterlimit:10;" d="M216.176,260.354
			c1.25,0,11.5-0.75,13.75,1.5c1.973,1.973,17.018,37.01,20.692,45.607c0.422,0.986-0.156,2.11-1.202,2.346l-33.49,7.547l-2.5-16.75
			l19.75-3l-6.75-24.25"/>
		<g>
			<path style="fill:#FFFFFF;stroke:#263238;stroke-linecap:round;stroke-linejoin:round;stroke-miterlimit:10;" d="M237.55,305.401
				c0,0-40.85,15.247-51.207,22.439c-10.356,7.192-12.945,14.959-12.945,22.727s8.63,14.672,21.576,14.672
				c8.923,0,36.535-29.056,36.535-29.056s1.151,11.507,5.178,19.274c4.027,7.767,25.028,32.508,27.329,35.672
				c2.301,3.164,11.22,16.398,12.083,17.261c0.863,0.863,4.603,0.288,5.754-0.863s19.562-17.836,21-21.288
				c1.438-3.452,1.726-5.466,0-5.178c-1.726,0.288-18.411,5.178-21.576,5.178c-3.164,0-4.315,0-4.315,0
				s-10.356-14.384-13.233-23.877s-11.795-33.658-16.398-44.59C242.728,306.839,240.139,305.113,237.55,305.401z"/>
			<path style="fill:#263238;stroke:#263238;stroke-linecap:round;stroke-linejoin:round;stroke-miterlimit:10;" d="
				M264.558,364.727c-0.317-0.813-0.599-1.606-0.83-2.366c-2.877-9.493-11.795-33.658-16.398-44.59
				c-4.603-10.932-7.192-12.658-9.781-12.37c0,0-40.85,15.247-51.207,22.439c-10.356,7.192-12.945,14.959-12.945,22.727
				s8.63,14.672,21.576,14.672c8.923,0,36.535-29.056,36.535-29.056s1.151,11.507,5.178,19.275
				c2.121,4.09,8.947,12.884,15.271,20.758L264.558,364.727z"/>
			<path style="fill:none;stroke:#263238;stroke-linecap:round;stroke-linejoin:round;stroke-miterlimit:10;" d="M302.853,381.06
				c-1.726,0.288-18.411,5.178-21.576,5.178c-3.164,0-4.315,0-4.315,0s-0.049-0.068-0.135-0.189
				c-0.213,0.767-0.249,1.628,0.135,2.49c1.151,2.589,2.589,4.027,2.589,4.027l-9.061,7.9c2.665,3.871,5.172,7.485,5.609,7.923
				c0.863,0.863,4.603,0.288,5.754-0.863c1.151-1.151,19.562-17.836,21-21.288C304.291,382.786,304.579,380.772,302.853,381.06z"/>
		</g>
		<g>
			<path style="fill:#FFFFFF;stroke:#263238;stroke-linecap:round;stroke-linejoin:round;stroke-miterlimit:10;" d="
				M204.754,362.361c0,0-1.151-13.809,8.63-22.727c9.781-8.918,22.439-8.918,25.028,2.301c2.589,11.22-4.891,60.724-6.904,69.93
				c-2.014,9.206-2.866,16.705-2.866,16.705c-0.073,1.204,5.044,4.508,10.932,7.48c6.91,3.487,8.918,5.178,8.055,6.904
				c-0.863,1.726-5.178,1.726-12.37,1.438c-7.192-0.288-18.699,1.151-20.137,0s-1.726-3.74-1.151-8.343
				c0.575-4.603,2.589-10.356,2.589-10.356s1.14-34.565-0.298-45.497c-1.438-10.932-2.014-18.124-2.014-18.124
				S211.371,364.375,204.754,362.361z"/>
			<path style="fill:#FFFFFF;stroke:#263238;stroke-linecap:round;stroke-linejoin:round;stroke-miterlimit:10;" d="
				M235.259,444.393c7.192,0.288,11.507,0.288,12.37-1.438c0.863-1.726-1.145-3.417-8.055-6.904
				c-5.656-2.854-10.587-6.01-10.903-7.322c-0.954,0.584-2.043,1.462-2.043,2.431c0,1.726,0,3.74,0,3.74l-12.089-2.049
				c-0.236,1.073-0.439,2.165-0.569,3.2c-0.575,4.603-0.288,7.192,1.151,8.343C216.56,445.544,228.067,444.105,235.259,444.393z"/>
			<path style="fill:#263238;stroke:#263238;stroke-linecap:round;stroke-linejoin:round;stroke-miterlimit:10;" d="
				M232.804,405.563c2.822-14.355,7.79-54.172,5.609-63.627c-2.589-11.22-15.247-11.22-25.028-2.301
				c-9.781,8.918-11.673,23.031-11.673,23.031c6.617,2.014,12.536-0.592,12.536-0.592s0.575,7.192,2.014,18.124
				c0.53,4.026,0.63,20.293,0.545,25.4C220.264,406.436,225.916,407.144,232.804,405.563z"/>
			<path style="fill:none;stroke:#737373;stroke-linecap:round;stroke-linejoin:round;stroke-miterlimit:10;" d="M206.062,347.164
				c-0.52,1.294-0.918,2.477-1.171,3.489"/>
			<path style="fill:none;stroke:#737373;stroke-linecap:round;stroke-linejoin:round;stroke-miterlimit:10;" d="M239.163,352.065
				c0,0-0.707-27.912-11.905-28.015c-6.777-0.062-14.451,9.774-18.912,18.229"/>
		</g>
	</g>
</g>
<g id="Table">
	
		<line style="fill:none;stroke:#263238;stroke-linecap:round;stroke-linejoin:round;stroke-miterlimit:10;" x1="11" y1="444.717" x2="494.333" y2="444.717"/>
	<g>
		<g>
			<g>
				<g>
					<path style="fill:#525252;stroke:#263238;stroke-linecap:round;stroke-linejoin:round;stroke-miterlimit:10;" d="
						M269.965,444.717h-76.806c-0.567,0-1.108-0.241-1.487-0.663c-0.379-0.422-0.561-0.984-0.501-1.549l9.541-89.686
						c0.108-1.016,0.964-1.786,1.985-1.788l67.264-0.119c0.002,0,0.003,0,0.004,0c0.53,0,1.038,0.21,1.413,0.585
						c0.376,0.375,0.587,0.884,0.587,1.415v89.805C271.965,443.821,271.07,444.717,269.965,444.717z M195.384,440.717h72.581
						v-85.801l-63.466,0.112L195.384,440.717z"/>
				</g>
				<g>
					<path style="fill:#525252;stroke:#263238;stroke-linecap:round;stroke-linejoin:round;stroke-miterlimit:10;" d="
						M347.247,444.717h-76.806c-1.104,0-2-0.895-2-2v-89.805c0-0.531,0.211-1.04,0.587-1.415c0.375-0.375,0.883-0.585,1.413-0.585
						c0.001,0,0.002,0,0.004,0l67.265,0.119c1.02,0.002,1.877,0.772,1.985,1.788l9.541,89.686c0.06,0.564-0.123,1.127-0.502,1.549
						C348.355,444.476,347.815,444.717,347.247,444.717z M272.442,440.717h72.582l-9.116-85.688l-63.466-0.112V440.717z"/>
				</g>
			</g>
			
				<rect x="267.652" y="352.912" style="fill:#525252;stroke:#263238;stroke-linecap:round;stroke-linejoin:round;stroke-miterlimit:10;" width="5.175" height="91.546"/>
		</g>
		<g>
			<path style="fill:#92E3A9;" d="M269.331,317.688c0,0-0.126-3.271-1.51-5.536c-1.384-2.265-6.416-3.9-9.058-2.768
				c-2.642,1.132-3.9,1.887-3.9,1.887s3.9,1.132,7.423,3.523C265.808,317.184,269.331,317.688,269.331,317.688z"/>
			<path style="fill:#92E3A9;" d="M274.614,319.323c0,0-3.019-2.894-3.523-6.919c-0.503-4.026,3.774-10.316,3.774-10.316
				s2.139,3.9,3.397,8.429C279.521,315.046,274.614,319.323,274.614,319.323z"/>
			<path style="fill:#92E3A9;" d="M280.402,318.065c0,0-0.755-3.774,0.629-6.416c1.384-2.642,5.032-2.39,8.681-1.258
				c3.648,1.132,4.781,1.132,4.781,1.132s-4.277,2.894-7.926,4.403C282.918,317.436,280.402,318.065,280.402,318.065z"/>
			<g>
				<path style="fill:#263238;" d="M274.648,331.622c-0.18,0-0.325-0.146-0.325-0.325v-17.99c0-0.18,0.145-0.325,0.325-0.325
					c0.18,0,0.325,0.146,0.325,0.325v17.99C274.973,331.477,274.828,331.622,274.648,331.622z"/>
			</g>
			<g>
				<path style="fill:#263238;" d="M276.158,331.622c-0.015,0-0.03-0.001-0.045-0.003c-0.178-0.024-0.302-0.189-0.278-0.366
					c0.062-0.451,1.582-11.109,6.744-17.028c0.118-0.136,0.324-0.149,0.46-0.032c0.135,0.118,0.149,0.324,0.031,0.459
					c-5.033,5.771-6.576,16.58-6.591,16.689C276.457,331.504,276.318,331.622,276.158,331.622z"/>
			</g>
			<g>
				<path style="fill:#263238;" d="M273.138,331.371c-0.001,0-0.003,0-0.004,0c-0.18-0.002-0.323-0.15-0.322-0.329
					c0.001-0.103,0.048-10.344-6.043-15.216c-0.14-0.113-0.163-0.317-0.051-0.457c0.113-0.14,0.317-0.162,0.457-0.051
					c6.342,5.073,6.292,15.3,6.287,15.732C273.462,331.228,273.316,331.371,273.138,331.371z"/>
			</g>
			<g>
				<path style="fill:#263238;" d="M278.17,331.245c-0.028,0-0.056-0.004-0.084-0.011c-0.173-0.047-0.276-0.225-0.229-0.399
					c0.036-0.136,0.919-3.361,2.944-6.145c0.105-0.146,0.31-0.177,0.454-0.072c0.145,0.105,0.177,0.309,0.072,0.454
					c-1.955,2.688-2.834,5.9-2.843,5.932C278.445,331.149,278.314,331.245,278.17,331.245z"/>
				<path style="fill:#92E3A9;" d="M280.15,326.242c0,0-0.126-3.523,1.384-4.026s2.894,0.755,4.026,1.51
					c1.132,0.755,2.39,1.51,2.39,3.774c0,2.265-0.881,6.416-0.881,6.416s-1.258-3.9-3.397-5.661
					C281.534,326.494,280.15,326.242,280.15,326.242z"/>
			</g>
			<g>
				<path style="fill:#263238;" d="M270.873,331.371c-0.138,0-0.266-0.088-0.31-0.226c-0.009-0.031-1.007-3.075-3.288-4.876
					c-0.141-0.111-0.165-0.316-0.054-0.457c0.112-0.14,0.316-0.165,0.457-0.054c2.44,1.926,3.463,5.056,3.505,5.188
					c0.055,0.171-0.04,0.354-0.211,0.409C270.939,331.366,270.906,331.371,270.873,331.371z"/>
				<path style="fill:#92E3A9;" d="M269.331,327.375c0,0,0.503-2.265-0.755-3.9c-1.258-1.635-4.277-1.258-5.787,0.503
					c-1.51,1.761-3.648,7.045-3.648,7.045s3.019-2.39,6.542-2.39C269.205,328.633,269.331,327.375,269.331,327.375z"/>
			</g>
			<polygon style="fill:#263238;stroke:#263238;stroke-linecap:round;stroke-linejoin:round;stroke-miterlimit:10;" points="
				279.356,350.656 269.315,350.656 264.294,334.05 284.376,334.05 			"/>
			
				<rect x="264.238" y="331.296" style="fill:#263238;stroke:#263238;stroke-linecap:round;stroke-linejoin:round;stroke-miterlimit:10;" width="20.195" height="2.753"/>
		</g>
		
			<rect x="197.725" y="350.552" style="fill:#FFFFFF;stroke:#263238;stroke-linecap:round;stroke-linejoin:round;stroke-miterlimit:10;" width="144.957" height="4.72"/>
	</g>
</g>
<g id="Character_1">
	<g>
		<path style="fill:#92E3A9;stroke:#263238;stroke-linecap:round;stroke-linejoin:round;stroke-miterlimit:10;" d="M148.926,260.188
			c0,0,5,10.5,8.25,19.25s9.5,37.5,7.25,39s-9.75,4.25-13.75-0.75s-11.25-27-11.25-27l5.25-17.25"/>
		<path style="fill:#92E3A9;stroke:#263238;stroke-linecap:round;stroke-linejoin:round;stroke-miterlimit:10;" d="M151.273,278.451
			l-8.139,18.847l-19.276,34.054c0,0-27.843,0.857-31.912,1.499c-4.069,0.642-20.347,3.427-24.63,5.783
			c-4.283,2.356-7.282,4.712-7.924,3.641c-0.643-1.071-2.356-4.069-1.713-7.068c0.643-2.998,5.354-7.924,7.282-12.208
			c1.928-4.284,19.062-62.325,19.49-65.323c0.428-2.998,2.998-7.71,7.71-10.923s25.701-7.71,25.701-7.71s8.995,3.213,14.778,6.639
			c5.783,3.427,11.137,7.496,13.493,10.494c2.356,2.998,7.282,15.849,7.282,15.849"/>
		<path style="fill:none;stroke:#263238;stroke-linecap:round;stroke-linejoin:round;stroke-miterlimit:10;" d="M90.454,326.294
			c0.665,0.142,1.347,0.296,2.045,0.463"/>
		<path style="fill:none;stroke:#263238;stroke-linecap:round;stroke-linejoin:round;stroke-miterlimit:10;" d="M67.217,326.757
			c0,0,5.458-3.336,19.031-1.24"/>
		<path style="fill:none;stroke:#263238;stroke-linecap:round;stroke-linejoin:round;stroke-miterlimit:10;" d="M61.291,337.818
			c0,0,1.975-4.74,15.407-5.135"/>
		<polygon style="fill:#FFFFFF;stroke:#263238;stroke-linecap:round;stroke-linejoin:round;stroke-miterlimit:10;" points="
			140.35,253.821 140.992,267.314 134.353,259.818 		"/>
		<polygon style="fill:#FFFFFF;stroke:#263238;stroke-linecap:round;stroke-linejoin:round;stroke-miterlimit:10;" points="
			125.786,227.692 121.717,237.544 130.304,249.675 131.14,265.387 145.49,247.182 129.427,224.908 		"/>
		<path style="fill:#263238;stroke:#263238;stroke-linecap:round;stroke-linejoin:round;stroke-miterlimit:10;" d="M130.667,238.817
			c0,0,5.551,12.825,8.805,15.696l4.785-6.125l-13.016-12.825L130.667,238.817z"/>
		<g>
			<path style="fill:#FFFFFF;stroke:#263238;stroke-linecap:round;stroke-linejoin:round;stroke-miterlimit:10;" d="
				M165.408,213.557c0,0-0.857,12.208-1.928,13.493c-1.071,1.285-2.784,1.928-2.784,2.57s0.857,8.139,0.214,9.424
				c-0.643,1.285-4.926,1.927-4.926,1.927s-4.498,10.923-6.211,11.994c-1.713,1.071-11.351-5.569-14.35-8.781
				c-2.998-3.213-5.569-5.783-5.569-7.496c0-1.713,0-3.855,0-3.855l0.214-8.781c0,0-0.428-12.208,3.213-15.206
				c3.641-2.998,21.846-1.071,24.202-0.214C159.84,209.487,165.408,213.557,165.408,213.557z"/>
			<path style="fill:none;stroke:#263238;stroke-linecap:round;stroke-linejoin:round;stroke-miterlimit:10;" d="M157.912,226.193
				c0,0-2.57-2.356-6.425-2.356"/>
			<path style="fill:#263238;" d="M154.007,229.909c-0.4,1.113-1.085,1.886-1.531,1.726c-0.445-0.16-0.482-1.192-0.082-2.305
				c0.4-1.113,1.085-1.886,1.531-1.726C154.37,227.764,154.407,228.796,154.007,229.909z"/>
		</g>
		<path style="fill:#263238;stroke:#263238;stroke-linecap:round;stroke-linejoin:round;stroke-miterlimit:10;" d="M132.854,224.479
			l2.784,0.643c0,0,1.285-6.211,2.784-6.425c1.499-0.214,5.997,1.285,6.211-0.643c0.214-1.928-1.713-6.211-0.428-7.282
			c1.285-1.071,18.205,2.784,19.276,3.427c1.071,0.643,2.356,2.142,5.568-1.285s3.213-9.424,1.499-13.065
			c-1.713-3.641-4.498-3.427-5.997-1.071c-1.499,2.356-2.57,2.998-2.57,2.998s-4.498-10.28-7.71-8.353
			c-3.213,1.928-3.855,4.712-3.855,4.712s-12.85-4.712-20.132-1.499c-7.282,3.213-8.139,10.066-8.139,16.491
			s2.356,15.635,3.213,16.063c0.857,0.428,4.926-0.214,5.354-0.857L132.854,224.479z"/>
		<path style="fill:#FFFFFF;stroke:#263238;stroke-linecap:round;stroke-linejoin:round;stroke-miterlimit:10;" d="M133.496,228.12
			c0,0,1.713-8.353-1.499-10.709s-5.14,3.213-4.498,8.353c0.642,5.14,3.427,5.14,3.427,5.14"/>
		<polygon style="fill:#FFFFFF;stroke:#263238;stroke-linecap:round;stroke-linejoin:round;stroke-miterlimit:10;" points="
			121.931,231.333 134.139,254.035 126.643,267.314 114.863,238.829 		"/>
		<g>
			<g>
				<path style="fill:#FFFFFF;stroke:#263238;stroke-linecap:round;stroke-linejoin:round;stroke-miterlimit:10;" d="
					M147.732,270.602v-4.458c0,0-2.452-4.235-2.452-6.464c0-2.229-0.446-8.024-0.446-8.024s0.892-1.114,1.783-0.669
					c0.892,0.446,0.892,0.446,0.892,0.446s2.006-3.12,3.789-3.789c1.783-0.669,5.349-1.56,6.018,0
					c0.669,1.56,0.891,2.898,0.669,3.566c-0.223,0.669,2.898,4.235,3.343,5.349c0.446,1.115,0.223,3.343,0.223,4.904
					c0,1.56-3.12,6.91-4.235,8.47c-1.115,1.56-3.566,6.241-3.566,6.241L147.732,270.602z"/>
				<path style="fill:none;stroke:#263238;stroke-linecap:round;stroke-linejoin:round;stroke-miterlimit:10;" d="M147.509,251.433
					l2.264,1.531c0,0,1.444-1.564,1.649-3.002"/>
			</g>
			<polygon style="fill:#FFFFFF;stroke:#263238;stroke-linecap:round;stroke-linejoin:round;stroke-miterlimit:10;" points="
				141.714,275.282 147.286,268.819 155.979,275.059 151.521,283.529 			"/>
			<g>
				<path style="fill:#92E3A9;stroke:#263238;stroke-linecap:round;stroke-linejoin:round;stroke-miterlimit:10;" d="
					M86.644,257.985c0,0-6.805,17.784-5.16,21.45c1.645,3.666,5.201,4.623,9.635,13.741c11.474,23.596,23.163,36.426,25.81,35.983
					c2.647-0.443,33.602-38.291,34.751-40.623c1.149-2.332,2.946-4.94,1.929-6.422c-1.017-1.481-9.897-8.799-12.118-8.615
					c-2.221,0.184-22.289,23.849-22.289,23.849l-15.789-39.408c0,0-2.831-1.779-8.571,1.827"/>
				<path style="fill:none;stroke:#263238;stroke-linecap:round;stroke-linejoin:round;stroke-miterlimit:10;" d="M119.202,297.348
					c0,0-3.743,6.124-5.226,9.825"/>
				<path style="fill:none;stroke:#263238;stroke-linecap:round;stroke-linejoin:round;stroke-miterlimit:10;" d="M109.963,303.742
					c-0.532,0.512-0.987,0.996-1.298,1.411"/>
				<path style="fill:none;stroke:#263238;stroke-linecap:round;stroke-linejoin:round;stroke-miterlimit:10;" d="M115.758,298.975
					c0,0-1.938,1.425-3.847,3.032"/>
				
					<line style="fill:#FFFFFF;stroke:#263238;stroke-linecap:round;stroke-linejoin:round;stroke-miterlimit:10;" x1="86.902" y1="288.156" x2="79.926" y2="284.931"/>
			</g>
		</g>
		<g>
			<path style="fill:#FFFFFF;stroke:#263238;stroke-linecap:round;stroke-linejoin:round;stroke-miterlimit:10;" d="
				M137.535,326.483c0,0,32.739,0,39.287,0.873c6.548,0.873,7.421,6.984,6.984,10.476c-0.437,3.492-18.334,86.645-17.461,87.518
				c0.873,0.873,11.131,8.512,15.715,9.603c4.583,1.091,6.111,3.274,6.329,4.583c0.218,1.31-0.436,4.365-0.436,4.365
				s-5.457,0.873-12.223,0.873c-6.766,0-20.735-2.183-23.572-2.183c-2.837,0-8.512,1.528-9.385-0.655
				c-0.873-2.183,2.183-12.659,3.492-15.278c1.309-2.619,2.619-7.639,2.837-10.258c0.218-2.619,2.837-35.135,2.619-45.394
				c-0.218-10.258,0.873-14.623,0.873-14.623l-13.969,3.71L137.535,326.483z"/>
			<g>
				<path style="fill:#92E3A9;stroke:#263238;stroke-linecap:round;stroke-linejoin:round;stroke-miterlimit:10;" d="
					M182.06,434.954c-4.583-1.091-14.842-8.73-15.715-9.603c0,0-2.401-0.873-3.274,0c-0.873,0.873-1.309,4.365-1.309,4.365
					s-6.548-0.655-12.877-2.619c-0.906-0.281-1.723-0.533-2.472-0.762c-0.049,0.105-0.098,0.227-0.147,0.326
					c-1.31,2.619-4.365,13.096-3.492,15.278s6.548,0.655,9.385,0.655c2.837,0,16.806,2.183,23.572,2.183s12.223-0.873,12.223-0.873
					s0.655-3.056,0.437-4.365C188.171,438.228,186.643,436.046,182.06,434.954z"/>
				<path style="fill:#FFFFFF;stroke:#263238;stroke-linecap:round;stroke-linejoin:round;stroke-miterlimit:10;" d="
					M142.773,441.939c0.873,2.183,6.548,0.655,9.385,0.655c2.837,0,16.806,2.183,23.572,2.183s12.223-0.873,12.223-0.873
					s0.346-1.62,0.451-3.007c-4.079,0.378-11.794,0.563-21.861-0.424c-13.076-1.282-22.689-3.551-23.376-3.715
					C142.677,439.089,142.442,441.111,142.773,441.939z"/>
			</g>
			<path style="fill:#757575;stroke:#263238;stroke-linecap:round;stroke-linejoin:round;stroke-miterlimit:10;" d="
				M169.036,411.962c4.835-21.006,14.451-71.581,14.77-74.129c0.436-3.492-0.437-9.603-6.984-10.476
				c-6.548-0.873-39.287-0.873-39.287-0.873l1.091,33.612l13.969-3.71c0,0-1.091,4.365-0.873,14.623
				c0.177,8.334-1.518,35.44-2.278,42.217L169.036,411.962z"/>
			<path style="fill:none;stroke:#263238;stroke-linecap:round;stroke-linejoin:round;stroke-miterlimit:10;" d="M152.595,356.385
				c0,0,4.147-11.349,13.096-15.278"/>
			<path style="fill:none;stroke:#263238;stroke-linecap:round;stroke-linejoin:round;stroke-miterlimit:10;" d="M156.96,345.036
				c0,0,1.964-2.619,5.456-3.929"/>
			<polygon style="fill:#FFFFFF;stroke:#263238;stroke-linecap:round;stroke-linejoin:round;stroke-miterlimit:10;" points="
				148.23,408.763 148.011,417.493 169.837,415.966 171.802,407.454 			"/>
		</g>
		<path style="fill:#92E3A9;stroke:#263238;stroke-linecap:round;stroke-linejoin:round;stroke-miterlimit:10;" d="M154.926,309.188
			c0,0-5.5,0.75-7.5,2.75s-10,17.25-10,18.75s8,7.5,10.5,7.75s15.25-14.5,17.25-16.25s0.25-11.5-0.5-14.5"/>
		<path style="fill:#FFFFFF;stroke:#263238;stroke-linecap:round;stroke-linejoin:round;stroke-miterlimit:10;" d="M146.176,422.188
			c0,0,3.25-55.25,3.25-70.25s1.25-22.25-3.25-25s-53.25,3-64.25,6s-21.75,9.75-21.75,9.75s1,13.75,3.5,17.25s11.5,5,16,5
			s29.75,0,29.75,0l12-3.25l7.5,65.25c0,0-1.5,16.5-0.25,17.5s19,2,25.25,1.75s17,0.25,17.5-1.5s-0.75-6.25-0.75-6.25
			s-11.25-4.5-14.75-6.75s-9-7.25-9-7.25L146.176,422.188z"/>
		<g>
			<path style="fill:#92E3A9;stroke:#263238;stroke-linecap:round;stroke-linejoin:round;stroke-miterlimit:10;" d="
				M155.926,431.688c-3.5-2.25-9-7.25-9-7.25l-0.75-2.25c0,0-1.5-0.5-3.25,1.75s-2.75,6.25-2.75,6.25l-11.386-1.653
				c-0.339,4.163-1.125,15.094-0.114,15.903c1.25,1,19,2,25.25,1.75s17,0.25,17.5-1.5s-0.75-6.25-0.75-6.25
				S159.426,433.938,155.926,431.688z"/>
			<path style="fill:#FFFFFF;stroke:#263238;stroke-linecap:round;stroke-linejoin:round;stroke-miterlimit:10;" d="
				M171.426,444.688c0.22-0.77,0.101-2.072-0.101-3.29c-13.393,3.017-37.918,0.3-43.14-0.334c0.027,1.798,0.166,3.113,0.492,3.374
				c1.25,1,19,2,25.25,1.75S170.926,446.438,171.426,444.688z"/>
		</g>
		<path style="fill:#757575;stroke:#263238;stroke-linecap:round;stroke-linejoin:round;stroke-miterlimit:10;" d="M121.426,361.688
			l6.267,56.495c5.365-0.967,13.217-2.439,19.03-3.536c0.926-13.074,2.703-51.616,2.703-62.709c0-15,1.25-22.25-3.25-25
			s-53.25,3-64.25,6s-21.75,9.75-21.75,9.75s1,13.75,3.5,17.25s11.5,5,16,5s29.75,0,29.75,0L121.426,361.688z"/>
		<g>
			<path style="fill:none;stroke:#263238;stroke-linecap:round;stroke-linejoin:round;stroke-miterlimit:10;" d="M132.067,341.532
				c0.808-0.797,1.676-1.582,2.608-2.345"/>
			<path style="fill:none;stroke:#263238;stroke-linecap:round;stroke-linejoin:round;stroke-miterlimit:10;" d="M121.676,360.188
				c0,0,1.283-7.696,7.443-15.383"/>
			<path style="fill:none;stroke:#263238;stroke-linecap:round;stroke-linejoin:round;stroke-miterlimit:10;" d="M124.926,346.188
				c0,0-5,7-5,11.75"/>
		</g>
		<polygon style="fill:#FFFFFF;stroke:#263238;stroke-linecap:round;stroke-linejoin:round;stroke-miterlimit:10;" points="
			125.176,414.688 126.676,422.688 147.676,418.688 147.676,410.438 		"/>
	</g>
</g>
</svg>
